<svg xmlns="http://www.w3.org/2000/svg" xmlns:xlink="http://www.w3.org/1999/xlink" width="1920" height="1080" viewBox="0 0 1920 1080" style="width:100%; height: auto"><defs><style>.a{clip-path:url(#b);}.b,.g,.h,.i,.l{fill:#fff;}.c{fill:#fafafa;}.c,.d,.g,.i{stroke:#1a1a1a;}.c,.g,.i,.j,.l,.p{stroke-width:2px;}.d,.n,.p,.r{fill:none;}.e,.f,.k,.m,.o{fill:#1a1a1a;}.e{font-size:12px;}.e,.k{font-family:RedactedScript-Bold, Redacted Script;font-weight:700;}.g{stroke-linecap:round;stroke-linejoin:round;}.j{fill:#f2f2f2;}.j,.l,.n,.p{stroke:#333232;}.k,.o{font-size:16px;}.m{font-size:24px;}.m,.o{font-family:Muli-Regular, Muli;}.n{stroke-width:4px;}.q,.s{stroke:none;}.s{fill:#1a1a1a;}</style><clipPath id="b"><rect width="1920" height="1080"/></clipPath></defs><g id="a" class="a"><rect class="b" width="1920" height="1080"/><rect class="b" width="1920" height="1080"/><g transform="translate(104 91)"><g transform="translate(117 134)"><g class="c"><rect class="q" width="718" height="459" rx="10"/><rect class="r" x="1" y="1" width="716" height="457" rx="9"/></g><line class="d" x2="716.122" transform="translate(1.252 25.451)"/><line class="d" x2="716.122" transform="translate(1.252 56.325)"/><text class="e" transform="translate(363.586 14.503)"><tspan x="-29.316" y="0">A Web Page</tspan></text><path class="f" d="M5.415,10.986q1.578-1.6,3.193-3.164c-2.49.114-4.976.3-7.469.35C-.382,8.2-.377,5.73,1.139,5.7c2.576-.049,5.145-.249,7.718-.361C7.579,4.309,6.233,3.36,5,2.267,3.727,1.134,5.571-.786,6.839.344c2,1.787,4.316,3.181,6.143,5.18a1.394,1.394,0,0,1-.4,2.185q-2.719,2.545-5.336,5.2a1.2,1.2,0,0,1-.864.388A1.374,1.374,0,0,1,5.415,10.986Z" transform="translate(31.709 47.51) rotate(180)"/><path class="f" d="M5.415,10.986q1.578-1.6,3.193-3.164c-2.49.114-4.976.3-7.469.35C-.382,8.2-.377,5.73,1.139,5.7c2.576-.049,5.145-.249,7.718-.361C7.579,4.309,6.233,3.36,5,2.267,3.727,1.134,5.571-.786,6.839.344c2,1.787,4.316,3.181,6.143,5.18a1.394,1.394,0,0,1-.4,2.185q-2.719,2.545-5.336,5.2a1.2,1.2,0,0,1-.864.388A1.374,1.374,0,0,1,5.415,10.986Z" transform="translate(44.226 34.212)"/><path class="f" d="M3668.09,2175.625l-5.479,3.091,5.479,2.429Z" transform="translate(-3582.829 -2139.222)"/><path class="g" d="M4438.3,2243.6s-1.146,1.177-4.4,1.35a5.65,5.65,0,0,1-6.1-5.369c-.205-3.534,2.115-5.964,5.685-6.333s5.3,2.967,5.3,2.967l2.293-1.1.388,5.579-5.6-2.438,3.489-2.395" transform="translate(-4356.202 -2197.99)"/><g class="h" transform="translate(426.164 29.206)"><path class="q" d="M 241.2703247070313 22.86445426940918 L -302.4263305664063 22.86445426940918 C -306.9117431640625 22.86445426940918 -310.5609741210938 17.84816932678223 -310.5609741210938 11.68224048614502 C -310.5609741210938 5.516312122344971 -306.9117431640625 0.5000262260437012 -302.4263305664063 0.5000262260437012 L 241.2703247070313 0.5000262260437012 C 245.7557525634766 0.5000262260437012 249.4049682617188 5.516312122344971 249.4049682617188 11.68224048614502 C 249.4049682617188 17.84816932678223 245.7557525634766 22.86445426940918 241.2703247070313 22.86445426940918 Z"/><path class="s" d="M -302.4263916015625 1.000026702880859 C -304.4075317382813 1.000026702880859 -306.290283203125 2.071168899536133 -307.727783203125 4.016025543212891 C -309.2323608398438 6.051668167114258 -310.06103515625 8.774240493774414 -310.06103515625 11.68224048614502 C -310.06103515625 14.59024047851563 -309.2323608398438 17.31281280517578 -307.727783203125 19.34845542907715 C -306.290283203125 21.29331207275391 -304.4075317382813 22.36445426940918 -302.4263916015625 22.36445426940918 L 241.2702789306641 22.36445426940918 C 243.2514190673828 22.36445426940918 245.1342010498047 21.29331207275391 246.5717010498047 19.34845542907715 C 248.0762786865234 17.31281280517578 248.9049224853516 14.59024047851563 248.9049224853516 11.68224048614502 C 248.9049224853516 8.774240493774414 248.0762786865234 6.051668167114258 246.5717010498047 4.016025543212891 C 245.1342010498047 2.071168899536133 243.2514190673828 1.000026702880859 241.2702789306641 1.000026702880859 L -302.4263916015625 1.000026702880859 M -302.4263916015625 2.6702880859375e-05 L 241.2702789306641 2.6702880859375e-05 C 246.0390472412109 2.6702880859375e-05 249.9049224853516 5.230312347412109 249.9049224853516 11.68224048614502 C 249.9049224853516 18.13416862487793 246.0390472412109 23.36445426940918 241.2702789306641 23.36445426940918 L -302.4263916015625 23.36445426940918 C -307.1951599121094 23.36445426940918 -311.06103515625 18.13416862487793 -311.06103515625 11.68224048614502 C -311.06103515625 5.230312347412109 -307.1951599121094 2.6702880859375e-05 -302.4263916015625 2.6702880859375e-05 Z"/></g><g transform="translate(696.93 35.047)"><ellipse class="f" cx="1.669" cy="1.573" rx="1.669" ry="1.573"/><ellipse class="f" cx="1.669" cy="1.573" rx="1.669" ry="1.573" transform="translate(0 4.493)"/><ellipse class="f" cx="1.669" cy="1.573" rx="1.669" ry="1.573" transform="translate(0 9.371)"/></g><text class="e" transform="translate(137.572 43.709)"><tspan x="0" y="0">Https://</tspan></text><g transform="translate(0 55.976)"><g class="i" transform="translate(0 0.024)"><path class="q" d="M0,0H718a0,0,0,0,1,0,0V393a10,10,0,0,1-10,10H10A10,10,0,0,1,0,393V0A0,0,0,0,1,0,0Z"/><path class="r" d="M2,1H716a1,1,0,0,1,1,1V393a9,9,0,0,1-9,9H10a9,9,0,0,1-9-9V2A1,1,0,0,1,2,1Z"/></g></g></g><g transform="translate(171.239 286.26)"><rect class="j" width="621.662" height="181.075" transform="translate(2.086)"/><g transform="translate(0 198.598)"><path class="j" d="M0,94.292V0H302.069V94.292Z" transform="translate(0 0)"/><path class="j" d="M0,94.292V0H297.9V94.292Z" transform="translate(323.765 0)"/></g></g><text class="k" transform="translate(172 207)"><tspan x="22.492" y="16" xml:space="preserve">Lorem    ipsum    dolor    sit    amet    consectetur    adipisicing    elit.    </tspan><tspan x="23.876" y="35" xml:space="preserve">Maxime    mollitia    molestiae    quas    vel    sint    commodi    voluptatu </tspan><tspan x="75.716" y="54" xml:space="preserve">mlaborum    numquam    harum    quisquam    eius    sed    odit</tspan></text><g transform="translate(897.483 134)"><g transform="translate(0)"><g class="c" transform="translate(-0.483)"><rect class="q" width="719" height="459" rx="10"/><rect class="r" x="1" y="1" width="717" height="457" rx="9"/></g><line class="d" x2="716.122" transform="translate(1.141 25.451)"/><line class="d" x2="716.122" transform="translate(1.141 56.325)"/><text class="e" transform="translate(363.476 14.503)"><tspan x="-29.316" y="0">A Web Page</tspan></text><path class="f" d="M5.415,10.986q1.578-1.6,3.193-3.164c-2.49.114-4.976.3-7.469.35C-.382,8.2-.377,5.73,1.139,5.7c2.576-.049,5.145-.249,7.718-.361C7.579,4.309,6.233,3.36,5,2.267,3.727,1.134,5.571-.786,6.839.344c2,1.787,4.316,3.181,6.143,5.18a1.394,1.394,0,0,1-.4,2.185q-2.719,2.545-5.336,5.2a1.2,1.2,0,0,1-.864.388A1.374,1.374,0,0,1,5.415,10.986Z" transform="translate(31.598 47.51) rotate(180)"/><path class="f" d="M5.415,10.986q1.578-1.6,3.193-3.164c-2.49.114-4.976.3-7.469.35C-.382,8.2-.377,5.73,1.139,5.7c2.576-.049,5.145-.249,7.718-.361C7.579,4.309,6.233,3.36,5,2.267,3.727,1.134,5.571-.786,6.839.344c2,1.787,4.316,3.181,6.143,5.18a1.394,1.394,0,0,1-.4,2.185q-2.719,2.545-5.336,5.2a1.2,1.2,0,0,1-.864.388A1.374,1.374,0,0,1,5.415,10.986Z" transform="translate(44.115 34.212)"/><path class="f" d="M3668.09,2175.625l-5.479,3.091,5.479,2.429Z" transform="translate(-3582.939 -2139.222)"/><path class="g" d="M4438.3,2243.6s-1.146,1.177-4.4,1.35a5.65,5.65,0,0,1-6.1-5.369c-.205-3.534,2.115-5.964,5.685-6.333s5.3,2.967,5.3,2.967l2.293-1.1.388,5.579-5.6-2.438,3.489-2.395" transform="translate(-4356.313 -2197.99)"/><g class="h" transform="translate(426.053 29.206)"><path class="q" d="M 241.2703247070313 22.86445426940918 L -302.4263305664063 22.86445426940918 C -306.9117431640625 22.86445426940918 -310.5609741210938 17.84816932678223 -310.5609741210938 11.68224048614502 C -310.5609741210938 5.516312122344971 -306.9117431640625 0.5000262260437012 -302.4263305664063 0.5000262260437012 L 241.2703247070313 0.5000262260437012 C 245.7557525634766 0.5000262260437012 249.4049682617188 5.516312122344971 249.4049682617188 11.68224048614502 C 249.4049682617188 17.84816932678223 245.7557525634766 22.86445426940918 241.2703247070313 22.86445426940918 Z"/><path class="s" d="M -302.4263916015625 1.000026702880859 C -304.4075317382813 1.000026702880859 -306.290283203125 2.071168899536133 -307.727783203125 4.016025543212891 C -309.2323608398438 6.051668167114258 -310.06103515625 8.774240493774414 -310.06103515625 11.68224048614502 C -310.06103515625 14.59024047851563 -309.2323608398438 17.31281280517578 -307.727783203125 19.34845542907715 C -306.290283203125 21.29331207275391 -304.4075317382813 22.36445426940918 -302.4263916015625 22.36445426940918 L 241.2702789306641 22.36445426940918 C 243.2514190673828 22.36445426940918 245.1342010498047 21.29331207275391 246.5717010498047 19.34845542907715 C 248.0762786865234 17.31281280517578 248.9049224853516 14.59024047851563 248.9049224853516 11.68224048614502 C 248.9049224853516 8.774240493774414 248.0762786865234 6.051668167114258 246.5717010498047 4.016025543212891 C 245.1342010498047 2.071168899536133 243.2514190673828 1.000026702880859 241.2702789306641 1.000026702880859 L -302.4263916015625 1.000026702880859 M -302.4263916015625 2.6702880859375e-05 L 241.2702789306641 2.6702880859375e-05 C 246.0390472412109 2.6702880859375e-05 249.9049224853516 5.230312347412109 249.9049224853516 11.68224048614502 C 249.9049224853516 18.13416862487793 246.0390472412109 23.36445426940918 241.2702789306641 23.36445426940918 L -302.4263916015625 23.36445426940918 C -307.1951599121094 23.36445426940918 -311.06103515625 18.13416862487793 -311.06103515625 11.68224048614502 C -311.06103515625 5.230312347412109 -307.1951599121094 2.6702880859375e-05 -302.4263916015625 2.6702880859375e-05 Z"/></g><g transform="translate(696.819 35.047)"><ellipse class="f" cx="1.669" cy="1.573" rx="1.669" ry="1.573"/><ellipse class="f" cx="1.669" cy="1.573" rx="1.669" ry="1.573" transform="translate(0 4.493)"/><ellipse class="f" cx="1.669" cy="1.573" rx="1.669" ry="1.573" transform="translate(0 9.371)"/></g><text class="e" transform="translate(137.462 43.709)"><tspan x="0" y="0">Https://</tspan></text></g><g transform="translate(0 55.976)"><g class="i" transform="translate(-0.483 0.024)"><path class="q" d="M0,0H719a0,0,0,0,1,0,0V393a10,10,0,0,1-10,10H10A10,10,0,0,1,0,393V0A0,0,0,0,1,0,0Z"/><path class="r" d="M2,1H717a1,1,0,0,1,1,1V393a9,9,0,0,1-9,9H10a9,9,0,0,1-9-9V2A1,1,0,0,1,2,1Z"/></g></g></g><g transform="translate(950.611 286.26)"><rect class="j" width="621.662" height="181.075" transform="translate(2.086)"/><g transform="translate(0 198.598)"><path class="j" d="M0,94.292V0H302.069V94.292Z" transform="translate(0 0)"/><path class="j" d="M0,94.292V0H297.9V94.292Z" transform="translate(323.765 0)"/></g></g><text class="k" transform="translate(951 207)"><tspan x="21.992" y="16" xml:space="preserve">Lorem    ipsum    dolor    sit    amet    consectetur    adipisicing    elit.    </tspan></text><rect class="l" width="87.069" height="110.292" transform="translate(1143 231.113)"/><text class="k" transform="translate(1143 230)"><tspan x="27.764" y="16">sint</tspan><tspan x="17.284" y="35">commode</tspan><tspan x="8.524" y="54">voluptatu</tspan><tspan x="13.708" y="73">mlaborum</tspan><tspan x="17.956" y="92">numquam</tspan></text><rect class="l" width="87.069" height="110.292" transform="translate(1408.5 232.113)"/><text class="k" transform="translate(1410 230)"><tspan x="25.1" y="16">harum</tspan><tspan x="12.556" y="35">quisquam</tspan><tspan x="28.212" y="54">eius</tspan><tspan x="29.276" y="73">sed</tspan><tspan x="28.22" y="92">odit</tspan></text><rect class="l" width="87.069" height="110.292" transform="translate(951 231.113)"/><text class="k" transform="translate(950 231)"><tspan x="22.444" y="16">Maxime</tspan><tspan x="16.684" y="35">mollitia</tspan><tspan x="8.772" y="54">molestiae</tspan><tspan x="25.7" y="73">quas</tspan><tspan x="32.012" y="92">vel</tspan></text></g><text class="m" transform="translate(577 834)"><tspan x="-95.22" y="0">How do you feel?­­­</tspan></text><rect class="n" width="571.662" height="204.075" transform="translate(299.338 771.26)"/><g transform="translate(79.662 -10)"><text class="o" transform="translate(329 887)"><tspan x="-36.184" y="0">Fantastic </tspan></text><text class="o" transform="translate(435 887)"><tspan x="-35.632" y="0">Incredible</tspan></text><text class="o" transform="translate(537 887)"><tspan x="-33.264" y="0">Amazing</tspan></text><text class="o" transform="translate(625 887)"><tspan x="-20.616" y="0">Great</tspan></text><text class="o" transform="translate(700 887)"><tspan x="-19.8" y="0">Good</tspan></text><rect class="p" width="15" height="15" transform="translate(274.338 873.5)"/><rect class="p" width="15" height="15" transform="translate(380.338 873.5)"/><rect class="p" width="15" height="15" transform="translate(484.338 873.5)"/><rect class="p" width="15" height="15" transform="translate(587.338 873.5)"/><rect class="p" width="15" height="15" transform="translate(661.338 873.5)"/></g><g transform="translate(52.662 -10)"><text class="o" transform="translate(378 927)"><tspan x="-15.44" y="0">Fine</tspan></text><text class="o" transform="translate(437 927)"><tspan x="-10.296" y="0">Ok</tspan></text><text class="o" transform="translate(516 927)"><tspan x="-35.224" y="0">Not Good</tspan></text><text class="o" transform="translate(599 927)"><tspan x="-15.048" y="0">Bad</tspan></text><text class="o" transform="translate(677 927)"><tspan x="-29.456" y="0">Horrible</tspan></text><rect class="p" width="15" height="15" transform="translate(343.338 913.5)"/><rect class="p" width="15" height="15" transform="translate(407.338 913.5)"/><rect class="p" width="15" height="15" transform="translate(462.338 913.5)"/><rect class="p" width="15" height="15" transform="translate(565.338 913.5)"/><rect class="p" width="15" height="15" transform="translate(629.338 913.5)"/></g><text class="m" transform="translate(1379 854)"><tspan x="-95.22" y="0">How do you feel?­­­</tspan></text><rect class="n" width="571.662" height="204.075" transform="translate(1079.338 771.26)"/><g transform="translate(240 20)"><g transform="translate(425.662 -10)"><text class="o" transform="translate(537 887)"><tspan x="-33.264" y="0">Amazing</tspan></text><rect class="p" width="15" height="15" transform="translate(484.338 873.5)"/></g><g transform="translate(441.662 -10)"><text class="o" transform="translate(630 887)"><tspan x="-19.8" y="0">Good</tspan></text><rect class="p" width="15" height="15" transform="translate(591.338 873.5)"/></g><g transform="translate(8.662)"><text class="o" transform="translate(1149 877)"><tspan x="-10.296" y="0">Ok</tspan></text><rect class="p" width="15" height="15" transform="translate(1120.338 863.5)"/></g><g transform="translate(709.662 -50)"><text class="o" transform="translate(529 927)"><tspan x="-15.048" y="0">Bad</tspan></text><rect class="p" width="15" height="15" transform="translate(495.338 913.5)"/></g><g transform="translate(661.662 -50)"><text class="o" transform="translate(677 927)"><tspan x="-29.456" y="0">Horrible</tspan></text><rect class="p" width="15" height="15" transform="translate(629.338 913.5)"/></g></g></g></svg>