<svg xmlns="http://www.w3.org/2000/svg" xmlns:xlink="http://www.w3.org/1999/xlink" width="1920" height="1080" viewBox="0 0 1920 1080" style="width:100%; height: auto"><defs><style>.a{clip-path:url(#b);}.b{fill:#fff;}.c{fill:#fafafa;stroke-width:4px;}.c,.e,.h{stroke:#1a1a1a;}.d,.f,.g{fill:#1a1a1a;}.d{font-size:18px;font-family:Muli-Black, Muli;font-weight:800;}.e,.h,.j{fill:none;}.e,.h{stroke-width:8px;}.f{stroke:rgba(0,0,0,0);stroke-miterlimit:10;}.h{stroke-linejoin:round;}.i{stroke:none;}</style><clipPath id="b"><rect width="1920" height="1080"/></clipPath></defs><g id="a" class="a"><rect class="b" width="1920" height="1080"/><rect class="b" width="1920" height="1080"/><g transform="translate(382.229 398.352)"><g transform="translate(438.248 83.812) rotate(180)"><rect class="c" width="83.812" height="438.248" rx="39" transform="translate(438.248) rotate(90)"/></g><text class="d" transform="translate(75.868 47.753)"><tspan x="-25.605" y="0">BACK</tspan></text><text class="d" transform="translate(207.615 47.753)"><tspan x="-27.405" y="0">HOME</tspan></text><text class="d" transform="translate(343.391 47.753)"><tspan x="-26.766" y="0">MENU</tspan></text></g><g transform="translate(1093.592 400.463)"><g transform="translate(438.248 83.812) rotate(180)"><rect class="c" width="83.812" height="438.248" rx="39" transform="translate(438.248) rotate(90)"/></g></g><g class="e" transform="translate(1290 419)"><circle class="i" cx="23.5" cy="23.5" r="23.5"/><circle class="j" cx="23.5" cy="23.5" r="19.5"/></g><g transform="translate(1093.592 690.629)"><g transform="translate(438.248 83.812) rotate(180)"><rect class="c" width="83.812" height="438.248" rx="39" transform="translate(438.248) rotate(90)"/></g></g><g transform="translate(1284.415 708.308)"><path class="f" d="M.178,52.3V24.646H56.333V52.3ZM0,24.646,28.183,0l28.15,24.646Z" transform="translate(0)"/></g><rect class="g" width="56.154" height="51.964" transform="translate(1149.656 708.649)"/><g transform="translate(1414.663 762.627) rotate(-90)"><path class="f" d="M18.617,52.3V24.646H37.894V52.3ZM0,24.646,28.183,0l28.15,24.646Z" transform="translate(0)"/></g><g transform="translate(382.229 690.766)"><g transform="translate(438.248 83.812) rotate(180)"><rect class="c" width="83.812" height="438.248" rx="39" transform="translate(438.248) rotate(90)"/></g></g><path class="g" d="M55.951,0,27.959,48.454,0,0Z" transform="translate(482.774 704.697) rotate(90)"/><g transform="translate(706.492 704.198)"><rect class="g" width="49" height="11" transform="translate(0.508 45.802)"/><path class="g" d="M0,0H48.611V10.9H0Z" transform="translate(0 23.027)"/><rect class="g" width="49" height="11" transform="translate(0.508 -0.198)"/></g><ellipse class="g" cx="24" cy="23.5" rx="24" ry="23.5" transform="translate(572 710)"/><g class="e" transform="translate(1421 419)"><rect class="i" width="47" height="47"/><rect class="j" x="4" y="4" width="39" height="39"/></g><path class="h" d="M5087.725-1117.576l-38.876-22.7,38.876-24.251" transform="translate(-3891.078 1583.745)"/></g></svg>