<svg xmlns="http://www.w3.org/2000/svg" xmlns:xlink="http://www.w3.org/1999/xlink" width="1920" height="1080" viewBox="0 0 1920 1080" style="width:100%; height: auto"><defs><style>.a{clip-path:url(#b);}.b{fill:#fff;}.c{fill:#f2f2f2;}.c,.e,.f{stroke:#333232;}.c,.f{stroke-width:4px;}.d{fill:#1a1a1a;font-size:15px;font-family:RedactedScript-Bold, Redacted Script;font-weight:700;}.e,.f{fill:none;}.e{stroke-width:2px;}</style><clipPath id="b"><rect width="1920" height="1080"/></clipPath></defs><g id="a" class="a"><rect class="b" width="1920" height="1080"/><rect class="b" width="1920" height="1080"/><rect class="c" width="190.456" height="118.722" transform="translate(211.5 407.898)"/><text class="d" transform="translate(306 580)"><tspan x="-52.013" y="0">culpa official s</tspan><tspan x="-78.758" y="18">dsa asd asdasd asdlk</tspan><tspan x="-70.005" y="36">sda dasas a asd mn</tspan><tspan x="-63.233" y="54" xml:space="preserve">ssdf  sdfs sdf sd</tspan><tspan x="-60.45" y="72">sdf sdf sdf fd sd</tspan></text><rect class="c" width="190.456" height="118.722" transform="translate(447.973 407.582)"/><text class="d" transform="translate(743 451)"><tspan x="-52.013" y="0">culpa official s</tspan><tspan x="-78.758" y="18">dsa asd asdasd asdlk</tspan><tspan x="-52.118" y="36">sda dasas a a</tspan></text><rect class="c" width="190.456" height="118.722" transform="translate(447.973 570.5)"/><text class="d" transform="translate(743 616)"><tspan x="-52.013" y="0">culpa official s</tspan><tspan x="-78.758" y="18">dsa asd asdasd asdlk</tspan><tspan x="-70.005" y="36">sda dasas a asd mn</tspan></text><rect class="c" width="190.456" height="118.722" transform="translate(1041.5 407.898)"/><text class="d" transform="translate(1137 580)"><tspan x="-52.013" y="0">culpa official s</tspan><tspan x="-78.758" y="18">dsa asd asdasd asdlk</tspan><tspan x="-70.005" y="36">sda dasas a asd mn</tspan><tspan x="-63.233" y="54" xml:space="preserve">ssdf  sdfs sdf sd</tspan><tspan x="-60.45" y="72">sdf sdf sdf fd sd</tspan></text><rect class="c" width="190.456" height="118.722" transform="translate(1278.359 407.582)"/><text class="d" transform="translate(1573 451)"><tspan x="-52.013" y="0">culpa official s</tspan><tspan x="-78.758" y="18">dsa asd asdasd asdlk</tspan><tspan x="-52.118" y="36">sda dasas a a</tspan></text><rect class="c" width="190.456" height="118.722" transform="translate(1278.359 570.825)"/><text class="d" transform="translate(1573 616)"><tspan x="-52.013" y="0">culpa official s</tspan><tspan x="-78.758" y="18">dsa asd asdasd asdlk</tspan><tspan x="-70.005" y="36">sda dasas a asd mn</tspan></text><rect class="e" width="441.998" height="150.258" rx="18" transform="translate(1263.519 555.243)"/><rect class="e" width="441.998" height="150.258" rx="18" transform="translate(1263.519 392)"/><rect class="f" width="222.604" height="313.5" rx="18" transform="translate(1026.205 392)"/></g></svg>