<svg xmlns="http://www.w3.org/2000/svg" xmlns:xlink="http://www.w3.org/1999/xlink" width="1920" height="1080" viewBox="0 0 1920 1080" style="width:100%; height: auto"><defs><style>.a{clip-path:url(#b);}.b{fill:#fff;}.c{fill:#1a1a1a;}.d{fill:none;stroke:#fff;stroke-width:15px;}</style><clipPath id="b"><rect width="1920" height="1080"/></clipPath></defs><g id="a" class="a"><rect class="b" width="1920" height="1080"/><rect class="b" width="1920" height="1080"/><g transform="translate(618.596 273)"><circle class="c" cx="82" cy="82" r="82" transform="translate(163.404 0)"/><ellipse class="c" cx="81.5" cy="82" rx="81.5" ry="82" transform="translate(493.404 0)"/><circle class="c" cx="81.5" cy="81.5" r="81.5" transform="translate(493.404 334)"/><circle class="c" cx="82" cy="82" r="82" transform="translate(325.404 497)"/><ellipse class="c" cx="81.5" cy="82" rx="81.5" ry="82" transform="translate(0.404 497)"/><circle class="c" cx="81.5" cy="81.5" r="81.5" transform="translate(0.404 164)"/><circle class="c" cx="81.5" cy="81.5" r="81.5" transform="translate(162.404 330)"/><circle class="c" cx="81.5" cy="81.5" r="81.5" transform="translate(327.404 164)"/></g><path class="d" d="M0,500.291V167.7H327.006v332.6ZM496.1,0,329.8,164.9Z" transform="translate(698.95 354.752)"/><path class="d" d="M-1447.106-981.212l-166.3,166.3Zm-332.6-1.4-166.3,164.9Zm2.794-1.4V-1316.6H-1449.9v332.594ZM-1779.7-1318-1946-1153.1Z" transform="translate(2642.155 1672.752)"/></g></svg>