<svg xmlns="http://www.w3.org/2000/svg" xmlns:xlink="http://www.w3.org/1999/xlink" width="1920" height="1080" viewBox="0 0 1920 1080" style="width:100%; height: auto"><defs><style>.a{clip-path:url(#b);}.b,.e{fill:#fff;}.c,.d,.h{fill:#1a1a1a;}.d{font-size:24px;}.d,.e,.f,.h{font-family:RedactedScript-Bold, Redacted Script;font-weight:700;}.e,.h{font-size:14px;}.f{fill:#ccc;font-size:18px;}.g{fill:#fafafa;stroke:#1a1a1a;stroke-width:2px;}</style><clipPath id="b"><rect width="1920" height="1080"/></clipPath></defs><g id="a" class="a"><rect class="b" width="1920" height="1080"/><rect class="b" width="1920" height="1080"/><path class="c" d="M9,34.223a9,9,0,0,1-9-9V9A9,9,0,0,1,9,0H117.928a9,9,0,0,1,9,9V25.223a9,9,0,0,1-9,9Z" transform="translate(233.279 462.503)"/><text class="d" transform="translate(299 412)"><tspan x="-65.652" y="0">culpa officia</tspan></text><text class="d" transform="translate(362 440)"><tspan x="-128.736" y="0">culspa officia aut! sad</tspan></text><text class="e" transform="translate(295 484)"><tspan x="-22.484" y="0">culbzwp</tspan></text><path class="c" d="M9,34.223a9,9,0,0,1-9-9V9A9,9,0,0,1,9,0H117.928a9,9,0,0,1,9,9V25.223a9,9,0,0,1-9,9Z" transform="translate(375.637 462.503)"/><text class="e" transform="translate(437 484)"><tspan x="-31.661" y="0">culnvbbzwp</tspan></text><path class="c" d="M9,34.223a9,9,0,0,1-9-9V9A9,9,0,0,1,9,0H117.928a9,9,0,0,1,9,9V25.223a9,9,0,0,1-9,9Z" transform="translate(561.322 462.503)"/><text class="d" transform="translate(627 412)"><tspan x="-65.652" y="0">culpa officia</tspan></text><text class="d" transform="translate(690 440)"><tspan x="-128.736" y="0">culspa officia aut! sad</tspan></text><text class="e" transform="translate(623 484)"><tspan x="-22.484" y="0">culbzwp</tspan></text><path class="c" d="M9,34.223a9,9,0,0,1-9-9V9A9,9,0,0,1,9,0H117.928a9,9,0,0,1,9,9V25.223a9,9,0,0,1-9,9Z" transform="translate(703.68 462.503)"/><text class="e" transform="translate(765 484)"><tspan x="-31.661" y="0">culnvbbzwp</tspan></text><path class="c" d="M9,34.223a9,9,0,0,1-9-9V9A9,9,0,0,1,9,0H117.928a9,9,0,0,1,9,9V25.223a9,9,0,0,1-9,9Z" transform="translate(233.279 598.672)"/><text class="d" transform="translate(299 547)"><tspan x="-65.652" y="0">culpa officia</tspan></text><text class="d" transform="translate(362 576)"><tspan x="-128.736" y="0">culspa officia aut! sad</tspan></text><text class="e" transform="translate(295 620)"><tspan x="-22.484" y="0">culbzwp</tspan></text><path class="c" d="M9,34.223a9,9,0,0,1-9-9V9A9,9,0,0,1,9,0H117.928a9,9,0,0,1,9,9V25.223a9,9,0,0,1-9,9Z" transform="translate(375.637 598.672)"/><text class="e" transform="translate(437 620)"><tspan x="-31.661" y="0">culnvbbzwp</tspan></text><path class="c" d="M9,34.223a9,9,0,0,1-9-9V9A9,9,0,0,1,9,0H117.928a9,9,0,0,1,9,9V25.223a9,9,0,0,1-9,9Z" transform="translate(561.322 598.672)"/><text class="d" transform="translate(627 547)"><tspan x="-65.652" y="0">culpa officia</tspan></text><text class="d" transform="translate(690 576)"><tspan x="-128.736" y="0">culspa officia aut! sad</tspan></text><text class="e" transform="translate(623 620)"><tspan x="-22.484" y="0">culbzwp</tspan></text><path class="c" d="M9,34.223a9,9,0,0,1-9-9V9A9,9,0,0,1,9,0H117.928a9,9,0,0,1,9,9V25.223a9,9,0,0,1-9,9Z" transform="translate(703.68 598.672)"/><text class="e" transform="translate(765 620)"><tspan x="-31.661" y="0">culnvbbzwp</tspan></text><path class="c" d="M9,34.223a9,9,0,0,1-9-9V9A9,9,0,0,1,9,0H117.928a9,9,0,0,1,9,9V25.223a9,9,0,0,1-9,9Z" transform="translate(1003.279 462.503)"/><text class="d" transform="translate(1069 412)"><tspan x="-65.652" y="0">culpa officia</tspan></text><text class="f" transform="translate(1100 440)"><tspan x="-96.552" y="0">culspa officia aut! sad</tspan></text><text class="e" transform="translate(1065 484)"><tspan x="-22.484" y="0">culbzwp</tspan></text><path class="g" d="M9,32.224a9,9,0,0,1-9-9V9A9,9,0,0,1,9,0H115.928a9,9,0,0,1,9,9V23.224a9,9,0,0,1-9,9Z" transform="translate(1146.536 463.503)"/><text class="h" transform="translate(1207 484)"><tspan x="-31.661" y="0">culnvbbzwp</tspan></text><path class="c" d="M9,34.223a9,9,0,0,1-9-9V9A9,9,0,0,1,9,0H117.928a9,9,0,0,1,9,9V25.223a9,9,0,0,1-9,9Z" transform="translate(1003.279 598.503)"/><text class="d" transform="translate(1069 548)"><tspan x="-65.652" y="0">culpa officia</tspan></text><text class="f" transform="translate(1100 576)"><tspan x="-96.552" y="0">culspa officia aut! sad</tspan></text><text class="e" transform="translate(1065 620)"><tspan x="-22.484" y="0">culbzwp</tspan></text><path class="g" d="M9,32.224a9,9,0,0,1-9-9V9A9,9,0,0,1,9,0H115.928a9,9,0,0,1,9,9V23.224a9,9,0,0,1-9,9Z" transform="translate(1146.536 599.503)"/><text class="h" transform="translate(1207 620)"><tspan x="-31.661" y="0">culnvbbzwp</tspan></text><path class="c" d="M9,34.223a9,9,0,0,1-9-9V9A9,9,0,0,1,9,0H117.928a9,9,0,0,1,9,9V25.223a9,9,0,0,1-9,9Z" transform="translate(1333.279 462.503)"/><text class="d" transform="translate(1399 412)"><tspan x="-65.652" y="0">culpa officia</tspan></text><text class="f" transform="translate(1430 440)"><tspan x="-96.552" y="0">culspa officia aut! sad</tspan></text><text class="e" transform="translate(1395 484)"><tspan x="-22.484" y="0">culbzwp</tspan></text><path class="g" d="M9,32.224a9,9,0,0,1-9-9V9A9,9,0,0,1,9,0H115.928a9,9,0,0,1,9,9V23.224a9,9,0,0,1-9,9Z" transform="translate(1476.536 463.503)"/><text class="h" transform="translate(1537 484)"><tspan x="-31.661" y="0">culnvbbzwp</tspan></text><path class="c" d="M9,34.223a9,9,0,0,1-9-9V9A9,9,0,0,1,9,0H117.928a9,9,0,0,1,9,9V25.223a9,9,0,0,1-9,9Z" transform="translate(1333.279 598.503)"/><text class="d" transform="translate(1399 548)"><tspan x="-65.652" y="0">culpa officia</tspan></text><text class="f" transform="translate(1430 576)"><tspan x="-96.552" y="0">culspa officia aut! sad</tspan></text><text class="e" transform="translate(1395 620)"><tspan x="-22.484" y="0">culbzwp</tspan></text><path class="g" d="M9,32.224a9,9,0,0,1-9-9V9A9,9,0,0,1,9,0H115.928a9,9,0,0,1,9,9V23.224a9,9,0,0,1-9,9Z" transform="translate(1476.536 599.503)"/><text class="h" transform="translate(1537 620)"><tspan x="-31.661" y="0">culnvbbzwp</tspan></text></g></svg>