<svg xmlns="http://www.w3.org/2000/svg" xmlns:xlink="http://www.w3.org/1999/xlink" width="1920" height="1080" viewBox="0 0 1920 1080" style="width:100%; height: auto" style="width:100%; height: auto">
<defs>
<style>
.a{fill:none;}.b{clip-path:url(#k);}.c{fill:#fff;}.d{fill:#ccc;}.d,.f,.g,.h,.i{stroke:#333232;stroke-width:4px;}.e{clip-path:url(#a);}.f{fill:#f2f2f2;}.g{fill:#e6e6e6;}.h{fill:#fafafa;}
.i{fill:#b3b3b3;}.j,.k{fill:#1a1a1a;font-family:RedactedScript-Bold, Redacted Script;font-weight:700;}.j{font-size:40px;}.k{font-size:24px;}
</style>
<clipPath id="a"><rect class="a" width="177" height="102"/></clipPath><clipPath id="k"><rect width="1920" height="1080"/></clipPath></defs><g id="j" class="b"><rect class="c" width="1920" height="1080"/><rect class="c" width="1920" height="1080"/><rect class="d" width="175" height="100" transform="translate(113.325 365.26)"/><g class="e" transform="translate(309.325 364.26)"><g transform="translate(-187.325 -341.26)"><rect class="f" width="175" height="100" transform="translate(188.325 342.26)"/></g></g><path class="g" d="M0,0H175V100H0Z" transform="translate(507.325 365.26)"/><rect class="d" width="175" height="100" transform="translate(704.325 365.26)"/><rect class="h" width="175" height="100" transform="translate(113.325 487.26)"/><g class="e" transform="translate(309.325 486.26)"><g transform="translate(-187.325 -341.26)"><rect class="h" width="175" height="100" transform="translate(188.325 342.26)"/></g></g><g class="e" transform="translate(506.325 486.26)"><g transform="translate(-187.325 -341.26)"><rect class="h" width="175" height="100" transform="translate(188.325 342.26)"/></g></g><rect class="d" width="175" height="100" transform="translate(704.325 487.26)"/><g class="e" transform="translate(112.325 608.26)"><g transform="translate(-187.325 -341.26)"><rect class="g" width="175" height="100" transform="translate(188.325 342.26)"/></g></g><g class="e" transform="translate(309.325 608.26)"><g transform="translate(-187.325 -341.26)"><rect class="f" width="175" height="100" transform="translate(188.325 342.26)"/></g></g><g class="e" transform="translate(506.325 608.26)"><g transform="translate(-187.325 -341.26)"><rect class="h" width="175" height="100" transform="translate(188.325 342.26)"/></g></g><rect class="f" width="175" height="100" transform="translate(704.325 609.26)"/><g class="e" transform="translate(112.325 730.26)"><g transform="translate(-187.325 -341.26)"><rect class="h" width="175" height="100" transform="translate(188.325 342.26)"/></g></g><g class="e" transform="translate(309.325 730.26)"><g transform="translate(-187.325 -341.26)"><rect class="d" width="175" height="100" transform="translate(188.325 342.26)"/></g></g><g class="e" transform="translate(506.325 730.26)"><g transform="translate(-187.325 -341.26)"><rect class="g" width="175" height="100" transform="translate(188.325 342.26)"/></g></g><rect class="h" width="175" height="100" transform="translate(704.325 731.26)"/><rect class="f" width="175" height="100" transform="translate(1008.325 315.26)"/><rect class="f" width="175" height="100" transform="translate(1205.325 315.26)"/><rect class="f" width="175" height="100" transform="translate(1402.325 315.26)"/><rect class="f" width="175" height="100" transform="translate(1599.325 315.26)"/><rect class="h" width="175" height="100" transform="translate(1008.325 467.26)"/><rect class="h" width="175" height="100" transform="translate(1205.325 467.26)"/><rect class="h" width="175" height="100" transform="translate(1402.325 467.26)"/><rect class="h" width="175" height="100" transform="translate(1599.325 467.26)"/><rect class="g" width="175" height="100" transform="translate(1008.325 619.26)"/><rect class="g" width="175" height="100" transform="translate(1205.325 619.26)"/><rect class="g" width="175" height="100" transform="translate(1402.325 619.26)"/><rect class="g" width="175" height="100" transform="translate(1599.325 619.26)"/><rect class="i" width="175" height="100" transform="translate(1008.325 771.26)"/><rect class="i" width="175" height="100" transform="translate(1205.325 771.26)"/><rect class="i" width="175" height="100" transform="translate(1402.325 771.26)"/><rect class="i" width="175" height="100" transform="translate(1599.325 771.26)"/><text class="j" transform="translate(501 329)"><tspan x="-160" y="0">culpa officia aut!</tspan></text><text class="k" transform="translate(1087 304)"><tspan x="-76.152" y="0">harum nesciunt</tspan></text><text class="k" transform="translate(1087 456)"><tspan x="-76.152" y="0">harum nesciunt</tspan></text><text class="k" transform="translate(1087 607)"><tspan x="-76.152" y="0">harum nesciunt</tspan></text><text class="k" transform="translate(1087 761)"><tspan x="-76.152" y="0">harum nesciunt</tspan></text></g></svg>