<svg id="designthinking-svg" x="0px" y="0px" viewBox="0 0 557.4 170.7" xml:space="preserve">
  <title></title>
  <desc></desc>

  <style type="text/css">
    .RedactedScript {font-family:RedactedScript-Bold, Redacted Script;font-weight:700}
    .PenScript {font-family:'Nanum Pen Script', cursive;font-weight:600}
    .Muli-Bold {font-family:Muli-Bold, Muli;font-weight:700}
    .Muli {font-family:Muli-Regular, Muli;}

    .font-48{font-size:48px;}
    .font-43{font-size:43px;}
    .font-40{font-size:40px;}
    .font-24{font-size:24px;}
    .font-20{font-size:0.75em;}
    .font-18{font-size:18px;}
    .font-16{font-size:16px;}
    .font-14{font-size:14px;}

    .fill-none{fill:none;}
    .fill-white{fill:#fff;}
    .fill-9h{fill:hsl(180, 3%, 93%)}
    .fill-8h{fill:hsl(210, 7%, 94%)}
    .fill-7h{fill:hsl(210, 5%, 92%)}
    .fill-6h{fill:hsl(210, 3%, 85%)}
    .fill-5h{fill:hsl(210, 2%, 84%)}
		.fill-4h{fill:hsl(220, 3%, 79%);}
		.fill-2h{fill:hsl(200, 2%, 74%);}
		.fill-h{fill:hsl(195, 2%, 68%);}
		.fill-f{fill:hsl(195, 2%, 68%);}
		.fill-hb{fill:hsl(195, 3%, 53%);}
		.fill-b{fill:hsl(192, 3%, 63%);}
		.fill-2b{fill:hsl(192, 3%, 46%);}
		.fill-4b{fill:hsl(189, 7%, 34%);}
		.fill-5b{fill:hsl(190, 6%, 40%);}
		.fill-6b{fill:hsl(185, 7%, 29%);}
		.fill-7b{fill:hsl(195, 3%, 23%);}
		.fill-8b{fill:hsl(180, 5%, 9%);}
		.fill-9b{fill:hsl(180, 50%, 2%);}

    .stroke-white{stroke:#fff;}
    .stroke-9h{stroke:hsl(180, 3%, 93%)}
    .stroke-8h{stroke:hsl(210, 7%, 94%)}
    .stroke-7h{stroke:hsl(210, 5%, 92%)}
    .stroke-6h{stroke:hsl(210, 3%, 85%)}
    .stroke-5h{stroke:hsl(210, 2%, 84%)}
		.stroke-4h{stroke:hsl(220, 3%, 79%);}
		.stroke-2h{stroke:hsl(200, 2%, 74%);}
		.stroke-h{stroke:hsl(195, 2%, 68%);}
		.stroke-f{stroke:hsl(195, 2%, 68%);}
		.stroke-hb{stroke:hsl(195, 3%, 53%);}
		.stroke-b{stroke:hsl(192, 3%, 63%);}
		.stroke-2b{stroke:hsl(192, 3%, 46%);}
		.stroke-4b{stroke:hsl(189, 7%, 34%);}
		.stroke-5b{stroke:hsl(190, 6%, 40%);}
		.stroke-6b{stroke:hsl(185, 7%, 29%);}
		.stroke-7b{stroke:hsl(195, 3%, 23%);}
		.stroke-8b{stroke:hsl(180, 5%, 9%);}
		.stroke-9b{stroke:hsl(180, 50%, 2%);}
    
    .stroke-32{stroke-width:32px;}
    .stroke-24{stroke-width:24px;}
    .stroke-18{stroke-width:18px;}
    .stroke-14{stroke-width:14px;}
    .stroke-8{stroke-width:8px;}
    .stroke-4{stroke-width:4px;}
    .stroke-2{stroke-width:2px;}
    .stroke-none{stroke-width:none;}
  </style>

	<g id="Expathize">

		<path class="fill-6b" d="M18.2,114.3c-2.3,0-5.5,0-7.2-1.7c-1.4-1.4-1.3-3.9-1.4-5.7C9.4,101.7,9.2,96.5,9,91.2
			c-0.1-2.9-0.2-5.8-0.3-8.7c-0.1-2.6-0.7-6.3,1.4-8.3c2.2-2.2,6.7-1.6,9.6-1.7c15-0.4,29.9-0.4,44.9-0.5c6.3,0,13.1-0.6,19.3,0.2
			c1.4,0.2,2.9,0.4,4.1,1.1c1.7,1,2,2.4,2.1,4.2c0.2,3.6,0.1,7.3,0.1,10.8c0,6.6,0,13.1-0.1,19.6c0,1.8,0.3,3.9-1.4,5
			c-0.8,0.5-1.9,0.7-2.8,0.9c-0.2,0-1.2,0.1-1.7,0.2c-2.1,0.2-4.3,0.2-6.4,0.3c-6.8,0.2-13.5,0.3-20.3,0.3c-8.2,0.1-16.4,0.1-24.6,0
			C27.9,114.6,23,114.7,18.2,114.3l0,2.8l0,0C20,117.1,20,114.3,18.2,114.3L18.2,114.3c-1.9,0-1.8,2.7,0,2.8
			c4.7,0.4,9.5,0.3,14.1,0.3c8.2,0.1,16.3,0.1,24.5,0c7.3,0,14.6-0.1,21.9-0.3c5.1-0.2,13.4,0.4,14.1-6.2c0.3-3.2,0.1-6.5,0.2-9.7
			c0-4,0-7.9,0-11.9c0-3.7,0-7.3-0.1-11c-0.1-2.6-0.4-5.2-2.7-6.9c-3.7-2.8-9.5-2.3-13.9-2.3c-3,0-6,0-9,0
			c-16.2,0.1-32.5,0.1-48.7,0.5c-3.9,0.1-8.8-0.2-11.3,3.3c-1.8,2.5-1.7,5.7-1.6,8.7C5.9,85.1,6,88.5,6.2,92c0.2,5.9,0,12,0.8,17.8
			c0.3,2.4,1.1,4.4,3.3,5.7c2.4,1.4,5.3,1.6,8,1.6C20,117.1,20,114.3,18.2,114.3z"/>
		<text class="PenScript font-20 fill-6b" x="20" y="98" style="background: white;">
			Expathize
		</text>

	</g>
	<g id="Define">
		<path id="Base_Button_1_" class="fill-6b" d="M132.9,113.9c-2.3,0-5.5,0-7.2-1.7c-1.4-1.4-1.3-3.9-1.4-5.7c-0.2-5.2-0.4-10.4-0.6-15.6
			c-0.1-2.9-0.2-5.8-0.3-8.7c-0.1-2.6-0.7-6.3,1.4-8.3c2.2-2.2,6.7-1.6,9.6-1.7c15-0.4,29.9-0.4,44.9-0.5c6.3,0,13.1-0.6,19.3,0.2
			c1.4,0.2,2.9,0.4,4.1,1.1c1.7,1,2,2.4,2.1,4.2c0.2,3.6,0.1,7.3,0.1,10.8c0,6.6,0,13.1-0.1,19.6c0,1.8,0.3,3.9-1.4,5
			c-0.8,0.5-1.9,0.7-2.8,0.9c-0.2,0-1.2,0.1-1.7,0.2c-2.1,0.2-4.3,0.2-6.4,0.3c-6.8,0.2-13.5,0.3-20.3,0.3c-8.2,0.1-16.4,0.1-24.6,0
			C142.6,114.1,137.7,114.2,132.9,113.9l0,2.8l0,0C134.7,116.7,134.7,113.9,132.9,113.9L132.9,113.9c-1.9,0-1.8,2.7,0,2.8
			c4.7,0.4,9.5,0.3,14.1,0.3c8.2,0.1,16.3,0.1,24.5,0c7.3,0,14.6-0.1,21.9-0.3c5.1-0.2,13.4,0.4,14.1-6.2c0.3-3.2,0.1-6.5,0.2-9.7
			c0-4,0-7.9,0-11.9c0-3.7,0-7.3-0.1-11c-0.1-2.6-0.4-5.2-2.7-6.9c-3.7-2.8-9.5-2.3-13.9-2.3c-3,0-6,0-9,0
			c-16.2,0.1-32.5,0.1-48.7,0.5c-3.9,0.1-8.8-0.2-11.3,3.3c-1.8,2.5-1.7,5.7-1.6,8.7c0.1,3.4,0.3,6.9,0.4,10.3c0.2,5.9,0,12,0.8,17.8
			c0.3,2.4,1.1,4.4,3.3,5.7c2.4,1.4,5.3,1.6,8,1.6C134.7,116.7,134.7,113.9,132.9,113.9z"/>
		<text class="PenScript font-20 fill-6b" x="145" y="98" style="background: white;">
				Define
		</text>
	</g>
	<g id="Ideate">
		<path id="Base_Button_2_" class="fill-6b" d="M247.2,113.9c-2.3,0-5.5,0-7.2-1.7c-1.4-1.4-1.3-3.9-1.4-5.7c-0.2-5.2-0.4-10.4-0.6-15.6
			c-0.1-2.9-0.2-5.8-0.3-8.7c-0.1-2.6-0.7-6.3,1.4-8.3c2.2-2.2,6.7-1.6,9.6-1.7c15-0.4,29.9-0.4,44.9-0.5c6.3,0,13.1-0.6,19.3,0.2
			c1.4,0.2,2.9,0.4,4.1,1.1c1.7,1,2,2.4,2.1,4.2c0.2,3.6,0.1,7.3,0.1,10.8c0,6.6,0,13.1-0.1,19.6c0,1.8,0.3,3.9-1.4,5
			c-0.8,0.5-1.9,0.7-2.8,0.9c-0.2,0-1.2,0.1-1.7,0.2c-2.1,0.2-4.3,0.2-6.4,0.3c-6.8,0.2-13.5,0.3-20.3,0.3c-8.2,0.1-16.4,0.1-24.6,0
			C256.9,114.1,252,114.2,247.2,113.9v2.8l0,0C249,116.7,249,113.9,247.2,113.9L247.2,113.9c-1.9,0-1.8,2.7,0,2.8
			c4.7,0.4,9.5,0.3,14.1,0.3c8.2,0.1,16.3,0.1,24.5,0c7.3,0,14.6-0.1,21.9-0.3c5.1-0.2,13.4,0.4,14.1-6.2c0.3-3.2,0.1-6.5,0.2-9.7
			c0-4,0-7.9,0-11.9c0-3.7,0-7.3-0.1-11c-0.1-2.6-0.4-5.2-2.7-6.9c-3.7-2.8-9.5-2.3-13.9-2.3c-3,0-6,0-9,0
			c-16.2,0.1-32.5,0.1-48.7,0.5c-3.9,0.1-8.8-0.2-11.3,3.3c-1.8,2.5-1.7,5.7-1.6,8.7c0.1,3.4,0.3,6.9,0.4,10.3c0.2,5.9,0,12,0.8,17.8
			c0.3,2.4,1.1,4.4,3.3,5.7c2.4,1.4,5.3,1.6,8,1.6C249,116.7,249,113.9,247.2,113.9z"/>
		<text class="PenScript font-20 fill-6b" x="258" y="96" style="background: white;">
			Ideate
		</text>
	</g>
	<g id="Prototype">
		<path id="Base_Button_3_" class="fill-6b" d="M362.4,113.9c-2.3,0-5.5,0-7.2-1.7c-1.4-1.4-1.3-3.9-1.4-5.7c-0.2-5.2-0.4-10.4-0.6-15.6
			c-0.1-2.9-0.2-5.8-0.3-8.7c-0.1-2.6-0.7-6.3,1.4-8.3c2.2-2.2,6.7-1.6,9.6-1.7c15-0.4,29.9-0.4,44.9-0.5c6.3,0,13.1-0.6,19.3,0.2
			c1.4,0.2,2.9,0.4,4.1,1.1c1.7,1,2,2.4,2.1,4.2c0.2,3.6,0.1,7.3,0.1,10.8c0,6.6,0,13.1-0.1,19.6c0,1.8,0.3,3.9-1.4,5
			c-0.8,0.5-1.9,0.7-2.8,0.9c-0.2,0-1.2,0.1-1.7,0.2c-2.1,0.2-4.3,0.2-6.4,0.3c-6.8,0.2-13.5,0.3-20.3,0.3c-8.2,0.1-16.4,0.1-24.6,0
			C372.1,114.2,367.2,114.3,362.4,113.9v2.8l0,0C364.2,116.8,364.2,113.9,362.4,113.9L362.4,113.9c-1.9,0-1.8,2.7,0,2.8
			c4.7,0.4,9.5,0.3,14.1,0.3c8.2,0.1,16.3,0.1,24.5,0c7.3,0,14.6-0.1,21.9-0.3c5.1-0.2,13.4,0.4,14.1-6.2c0.3-3.2,0.1-6.5,0.2-9.7
			c0-4,0-7.9,0-11.9c0-3.7,0-7.3-0.1-11c-0.1-2.6-0.4-5.2-2.7-6.9c-3.7-2.8-9.5-2.3-13.9-2.3c-3,0-6,0-9,0
			c-16.2,0.1-32.5,0.1-48.7,0.5c-3.9,0.1-8.8-0.2-11.3,3.3c-1.8,2.5-1.7,5.7-1.6,8.7c0.1,3.4,0.3,6.9,0.4,10.3c0.2,5.9,0,12,0.8,17.8
			c0.3,2.4,1.1,4.4,3.3,5.7c2.4,1.4,5.3,1.6,8,1.6C364.2,116.8,364.2,113.9,362.4,113.9z"/>
		<text class="PenScript font-20 fill-6b" x="364" y="98" style="background: white;">
			Prototype
		</text>
	</g>
	<g id="Test">
		<path id="Base_Button_4_" class="fill-6b" d="M474.1,113.5c-2.3,0-5.5,0-7.2-1.7c-1.4-1.4-1.3-3.9-1.4-5.7c-0.2-5.2-0.4-10.4-0.6-15.6
			c-0.1-2.9-0.2-5.8-0.3-8.7c-0.1-2.6-0.7-6.3,1.4-8.3c2.2-2.2,6.7-1.6,9.6-1.7c15-0.4,29.9-0.4,44.9-0.5c6.3,0,13.1-0.6,19.3,0.2
			c1.4,0.2,2.9,0.4,4.1,1.1c1.7,1,2,2.4,2.1,4.2c0.2,3.6,0.1,7.3,0.1,10.8c0,6.6,0,13.1-0.1,19.6c0,1.8,0.3,3.9-1.4,5
			c-0.8,0.5-1.9,0.7-2.8,0.9c-0.2,0-1.2,0.1-1.7,0.2c-2.1,0.2-4.3,0.2-6.4,0.3c-6.8,0.2-13.5,0.3-20.3,0.3c-8.2,0.1-16.4,0.1-24.6,0
			C483.8,113.7,478.9,113.8,474.1,113.5v2.8l0,0C475.9,116.3,475.9,113.5,474.1,113.5L474.1,113.5c-1.9,0-1.8,2.7,0,2.8
			c4.7,0.4,9.5,0.3,14.1,0.3c8.2,0.1,16.3,0.1,24.5,0c7.3,0,14.6-0.1,21.9-0.3c5.1-0.2,13.4,0.4,14.1-6.2c0.3-3.2,0.1-6.5,0.2-9.7
			c0-4,0-7.9,0-11.9c0-3.7,0-7.3-0.1-11c-0.1-2.6-0.4-5.2-2.7-6.9c-3.7-2.8-9.5-2.3-13.9-2.3c-3,0-6,0-9,0
			c-16.2,0.1-32.5,0.1-48.7,0.5c-3.9,0.1-8.8-0.2-11.3,3.3c-1.8,2.5-1.7,5.7-1.6,8.7c0.1,3.4,0.3,6.9,0.4,10.3c0.2,5.9,0,12,0.8,17.8
			c0.3,2.4,1.1,4.4,3.3,5.7c2.4,1.4,5.3,1.6,8,1.6C475.9,116.3,475.9,113.5,474.1,113.5z"/>
		<text class="PenScript font-20 fill-6b" x="490" y="98" style="background: white;">
				Test
		</text>
	</g>

	<g id="Top-arrows" class="fill-6b">

		<g>
			<path d="M411.3,60.6l-3.3-2l0.3-0.5c10.7-14,17.7-23.3,39.5-23.3c22.5,0,28.5,6.1,40.1,23.7l-3.4,1.8
				c-11.5-17.5-16.6-21.9-36.7-21.9c-19.7,0-25.9,8.2-36.3,21.7L411.3,60.6z"/>
			<path d="M487.7,41.8c-0.7,0-1.2,0.4-1.2,1L486,59.1l-16.2-7.3c-0.6-0.3-1.3-0.1-1.6,0.5s-0.1,1.2,0.5,1.4l17.9,8
				c0.4,0.2,0.8,0.1,1.1,0c0.3-0.2,0.6-0.5,0.6-0.9l0.6-17.9c0-0.2-0.1-0.4-0.2-0.6C488.5,42,488.2,41.8,487.7,41.8z"/>
			<path d="M409.7,42.2c0.6,0,1.1,0.5,1.1,1.1l-0.8,16l16.5-6.1c0.6-0.2,1.3,0,1.5,0.6c0.2,0.5,0,1.1-0.6,1.4l-18.2,6.8
				c-0.4,0.1-0.8,0.1-1.1-0.1c-0.3-0.2-0.5-0.5-0.5-0.9l0.8-17.6c0-0.2,0.1-0.4,0.2-0.6C408.9,42.4,409.2,42.2,409.7,42.2z"/>
		</g>

		<g>
			<path d="M39.8,60.2l-2.9-0.9C43,40.6,53.4,30,70.7,24.9c15.8-4.7,35.9-4.4,61.4-4.1c7.1,0.1,14.4,0.2,22.2,0.2
				c8,0,15.7-0.1,23.1-0.2c51.3-0.8,85.1-1.3,94.6,38.5l-3,0.7C260,22.5,227.1,23,177.4,23.8c-7.4,0.1-15.1,0.2-23.1,0.2
			c-7.8,0-15.1-0.1-22.2-0.2C82.2,23.1,52.2,22.7,39.8,60.2z"/>
			<path d="M276.2,45.7c-0.5-0.2-1,0.1-1.2,0.5l-4.7,13l-10.1-9.7c-0.4-0.3-1-0.3-1.3,0s-0.4,0.9,0,1.3L270,61.5
				c0.2,0.2,0.5,0.3,0.9,0.2c0.3-0.1,0.6-0.3,0.7-0.6l5.2-14.3c0.1-0.2,0.1-0.3,0-0.5C276.7,46.1,276.5,45.8,276.2,45.7z"/>
			<path d="M33.8,45.6c0.5-0.1,1,0.2,1.1,0.6l3.5,13.1l10.7-8.6c0.4-0.3,1-0.3,1.3,0.1c0.3,0.4,0.3,0.9-0.1,1.2
				l-11.8,9.5c-0.2,0.2-0.6,0.3-0.9,0.2c-0.3-0.1-0.5-0.3-0.6-0.6l-3.9-14.4c0-0.2,0-0.3,0-0.5C33.3,45.9,33.5,45.7,33.8,45.6z"/>
		</g>

		<g>
			<path d="M291.6,60.8l-3.1-1.7l0.3-0.4c10.3-11.8,17.1-19.6,38.1-19.6c21.6,0,27.5,5.2,38.6,20l-3.3,1.5
				c-11.1-14.8-16-18.5-35.3-18.5c-19,0-25,6.9-34.9,18.3L291.6,60.8z"/>
			<path d="M365.1,44.9c-0.6,0-1.2,0.4-1.2,0.9l-0.5,13.8l-15.6-6.2c-0.6-0.2-1.3,0-1.5,0.4c-0.3,0.4,0,1,0.5,1.2
				l17.2,6.8c0.3,0.1,0.8,0.1,1.1,0c0.3-0.2,0.5-0.4,0.6-0.7l0.5-15.2c0-0.2-0.1-0.3-0.2-0.5C365.9,45.1,365.5,44.9,365.1,44.9z"/>
			<path d="M290,45.2c0.6,0,1.1,0.4,1.1,0.9l-0.7,13.5l15.9-5.2c0.6-0.2,1.2,0,1.5,0.5c0.2,0.5,0,1-0.6,1.2l-17.5,5.7
				c-0.4,0.1-0.8,0.1-1.1-0.1c-0.3-0.2-0.5-0.5-0.5-0.8l0.8-14.9c0-0.2,0.1-0.3,0.2-0.5C289.2,45.4,289.6,45.2,290,45.2z"/>
		</g>

		<g>
			<path d="M180.7,59.1l-2.9-0.8c8.6-32.8,38.6-32.4,84.1-31.8c6.6,0.1,13.4,0.2,20.5,0.2c6.9,0,13.4-0.1,19.7-0.2
				C346,26,375,25.6,386.7,58.2l-2.8,1c-11-30.6-37.6-30.3-81.8-29.7c-6.3,0.1-12.8,0.2-19.7,0.2c-7.2,0-14-0.1-20.5-0.2
				C217.8,29,188.7,28.6,180.7,59.1z"/>
			<path d="M190.7,48.8c-0.3-0.4-0.9-0.4-1.3,0l-10,9.5L175.2,45c-0.2-0.5-0.7-0.7-1.1-0.6c-0.5,0.2-0.7,0.7-0.6,1.2
				l4.7,14.6c0.1,0.3,0.3,0.5,0.6,0.6c0.3,0.1,0.6,0,0.8-0.2l11-10.5c0.1-0.1,0.2-0.3,0.3-0.4C191,49.4,190.9,49.1,190.7,48.8z"/>
			<path d="M373.2,50.2c0.3-0.4,0.8-0.5,1.2-0.2l10.7,8.4l2.9-13.4c0.1-0.5,0.6-0.8,1.1-0.7c0.5,0.1,0.8,0.6,0.7,1.1
				l-3.2,14.8c-0.1,0.3-0.3,0.5-0.6,0.6c-0.3,0.1-0.6,0.1-0.8-0.1l-11.8-9.2c-0.1-0.1-0.2-0.2-0.3-0.4C373,50.8,373,50.4,373.2,50.2
				z"/>
		</g>

		<g>
			<path d="M156.3,60.5l-2.9-0.8C167.1,9.2,218.7,9.5,296.9,10c11.3,0.1,23,0.2,35.3,0.1c11.9-0.1,23.1-0.3,33.9-0.4
				c39-0.7,69.7-1.2,93.8,4.7c26.1,6.3,42,19.7,51.4,43.4l-2.8,1.1c-19.2-48.2-65.5-47.4-142.3-46.1c-10.8,0.2-22,0.4-33.9,0.4
				c-12.3,0.1-24,0-35.3-0.1C220.1,12.5,169.4,12.2,156.3,60.5z"/>
			<path d="M166.5,50.6c-0.3-0.4-0.9-0.4-1.3-0.1L155,59.8l-4-13.2c-0.1-0.5-0.6-0.7-1.1-0.6c-0.5,0.1-0.7,0.7-0.6,1.1
				l4.4,14.5c0.1,0.3,0.3,0.5,0.6,0.6c0.3,0.1,0.6,0,0.8-0.2l11.3-10.1c0.1-0.1,0.2-0.3,0.3-0.4C166.8,51.2,166.7,50.9,166.5,50.6z"/>
			<path d="M497.4,50.3c0.3-0.4,0.8-0.5,1.2-0.2l11,7.8l2.4-13.3c0.1-0.5,0.5-0.8,1-0.7c0.5,0.1,0.8,0.6,0.7,1
				l-2.7,14.7c-0.1,0.3-0.3,0.5-0.5,0.7c-0.3,0.1-0.6,0.1-0.8-0.1l-12.2-8.6c-0.1-0.1-0.2-0.2-0.3-0.4
				C497.1,50.9,497.2,50.5,497.4,50.3z"/>
		</g>

	</g>
	<g id="bottom-arrows" class="fill-6b">

		<g>
			<path d="M220.3,145.9c-19.7,0-26.1-8.2-35.8-20.7l-0.4-0.5l2.3-2.2l0.4,0.5c9.5,12.2,15.2,19.6,33.5,19.6
				c18.6,0,23.3-4,33.9-19.8l2.4,2C245.8,140.8,240.6,145.9,220.3,145.9z"/>
			<path d="M241,128.9c0.2,0.5,0.7,0.8,1.2,0.6l12.9-5.3l-1.2,15.4c0,0.6,0.3,1,0.8,1.1c0.5,0,0.9-0.4,1-0.9l1.3-17
				c0-0.3-0.1-0.7-0.4-0.9c-0.2-0.2-0.6-0.3-0.9-0.1l-14.3,5.9c-0.2,0.1-0.3,0.2-0.4,0.3C240.9,128.2,240.9,128.5,241,128.9z"/>
			<path d="M199.7,127.4c-0.1,0.5-0.6,0.8-1.1,0.7l-13-4.1l2.2,15c0.1,0.5-0.2,1.1-0.7,1.1c-0.5,0.1-0.9-0.3-1-0.8
				l-2.4-16.5c0-0.3,0.1-0.7,0.3-0.9c0.2-0.2,0.5-0.3,0.8-0.2l14.4,4.5c0.2,0.1,0.3,0.2,0.4,0.3
				C199.7,126.7,199.8,127.1,199.7,127.4z"/>
		</g>

		<g>
			<path d="M106.5,145.9c-19.7,0-26.1-8.2-35.8-20.7l-0.4-0.5l2.3-2.2L73,123c9.5,12.2,15.2,19.6,33.5,19.6
				c18.6,0,23.3-4,33.9-19.8l2.4,2C132,140.8,126.8,145.9,106.5,145.9z"/>
			<path d="M127.2,128.9c0.2,0.5,0.7,0.8,1.2,0.6l12.9-5.3l-1.2,15.4c0,0.6,0.3,1,0.8,1.1c0.5,0,0.9-0.4,1-0.9l1.3-17
				c0-0.3-0.1-0.7-0.4-0.9c-0.2-0.2-0.6-0.3-0.9-0.1l-14.3,5.9c-0.2,0.1-0.3,0.2-0.4,0.3C127.1,128.2,127.1,128.5,127.2,128.9z"/>
			<path d="M85.9,127.4c-0.1,0.5-0.6,0.8-1.1,0.7l-13-4.1l2.2,15c0.1,0.5-0.2,1.1-0.7,1.1c-0.5,0.1-0.9-0.3-1-0.8
				l-2.4-16.5c0-0.3,0.1-0.7,0.3-0.9c0.2-0.2,0.5-0.3,0.8-0.2l14.4,4.5c0.2,0.1,0.3,0.2,0.4,0.3C85.9,126.7,86,127.1,85.9,127.4z"/>
		</g>

		<g>
			<path d="M441.4,157.7c-7.2,0-14.9-0.2-23.1-0.4c-7-0.2-14.2-0.3-21.8-0.4c-7.3-0.1-14.2-0.1-20.9,0
				c-24,0.1-42.9,0.1-57.7-3.8c-16.2-4.3-26-13-31.8-28.3l2.8-1.1c11.4,30.3,39.7,30.2,86.6,30.1c6.7,0,13.6,0,21,0
				c7.6,0.1,14.8,0.2,21.8,0.4c46.8,1,77.8,1.7,86.5-28.3l2.9,0.8C499.9,153.6,476.6,157.7,441.4,157.7z"/>
			<path d="M494.5,135.9c0.3,0.4,0.9,0.4,1.3,0.1l10.3-9.2l4,13.2c0.1,0.5,0.6,0.7,1.1,0.6c0.5-0.1,0.7-0.6,0.6-1.1
				l-4.4-14.5c-0.1-0.3-0.3-0.5-0.6-0.6s-0.6,0-0.8,0.2l-11.3,10.1c-0.1,0.1-0.2,0.3-0.3,0.4C494.2,135.4,494.3,135.7,494.5,135.9z"
				/>
			<path d="M299.7,132.7c-0.3,0.4-0.9,0.5-1.2,0.2l-10.8-8.2l-2.8,13.2c-0.1,0.5-0.6,0.8-1.1,0.7
				c-0.5-0.1-0.8-0.6-0.7-1.1l3.1-14.6c0.1-0.3,0.3-0.5,0.6-0.6s0.6-0.1,0.8,0.1l11.9,9c0.1,0.1,0.2,0.2,0.3,0.4
				C299.9,132.1,299.9,132.4,299.7,132.7z"/>
		</g>

		<g>
			<path d="M154,161.2c-61.7,0-102.3-3.8-114.8-36.3l2.8-1.1c13.6,35.4,64.2,34.9,140.7,34.3c11.3-0.1,23-0.2,35.3-0.2
				c11.9,0,23.1,0.1,33.9,0.2c76.7,0.7,122.9,1.1,141.9-34.4l2.6,1.4c-19.9,37.1-66.8,36.7-144.6,36c-10.8-0.1-22-0.2-33.9-0.2
				c-12.3,0-24,0.1-35.3,0.2C172.7,161.1,163.1,161.2,154,161.2z"/>
			<path d="M37,138.9c0.5,0.1,1-0.2,1.1-0.7l2.7-13.5l11.1,8.2c0.4,0.3,1,0.2,1.3-0.2c0.3-0.4,0.2-1-0.2-1.3l-12.2-9
				c-0.2-0.2-0.6-0.2-0.9-0.1c-0.3,0.1-0.5,0.4-0.6,0.7l-3,14.9c0,0.2,0,0.3,0,0.5C36.4,138.6,36.7,138.8,37,138.9z"/>
			<path d="M396.9,138.9c-0.5,0-0.9-0.3-0.9-0.8l-1-13.5l-11.8,6.6c-0.4,0.2-1,0.1-1.2-0.3s-0.1-1,0.3-1.2l13-7.3
				c0.3-0.1,0.6-0.2,0.9,0c0.3,0.1,0.4,0.4,0.5,0.7l1.1,14.9c0,0.2,0,0.3-0.1,0.5C397.5,138.7,397.2,138.9,396.9,138.9z"/>
		</g>

	</g>

</svg>
