<svg xmlns="http://www.w3.org/2000/svg" viewBox="0 150 1920 800" style="width:100%; height: auto; padding-top: 0">

  <title>Fitts’s Law</title>
  <desc>The time to acquire a target is a function of the distance to and size of the target.</desc>

  <style type="text/css">
    .fill-none{fill:none;}
    .fill-fff{fill:#fff;}
    .fill-cccccc{fill:#ccc;}
    .fill-5e5f5f{fill:#5E5F5F;}
    .fill-f2f2f2{fill:#f2f2f2;}
    .fill-e6e6e6{fill:#e6e6e6;}
    .fill-fafafa{fill:#fafafa;}
    .fill-b3b3b3{fill:#b3b3b3;}
    .fill-1a1a1a{fill:#1a1a1a;}

    .stroke-fff{stroke:#fff;}
    .stroke-333232{stroke:#333232;}
    .stroke-1a1a1a{stroke:#1a1a1a;}

    .stroke-32{stroke-width:32px;}
    .stroke-24{stroke-width:24px;}
    .stroke-18{stroke-width:18px;}
    .stroke-14{stroke-width:14px;}
    .stroke-4{stroke-width:4px;}
    .stroke-2{stroke-width:2px;}
    .stroke-none{stroke-width:none;}

    .RedactedScript {font-family:RedactedScript-Bold, Redacted Script;font-weight:700}
    .PenScript {font-family:'Nanum Pen Script', cursive;font-weight:600}
    .Muli-Bold {font-family:Muli-Bold, Muli;font-weight:700}
    .Muli {font-family:Muli-Regular, Muli;}

    .font-48{font-size:48px;}
    .font-43{font-size:43px;}
    .font-40{font-size:40px;}
    .font-24{font-size:24px;}
    .font-20{font-size:20px;}
    .font-18{font-size:18px;}
    .font-16{font-size:16px;}
    .font-14{font-size:14px;}

    .fill-9h{fill:hsl(180, 3%, 93%)}
    .fill-8h{fill:hsl(210, 7%, 94%)}
    .fill-7h{fill:hsl(210, 5%, 92%)}
    .fill-6h{fill:hsl(210, 3%, 85%)}
    .fill-5h{fill:hsl(210, 2%, 84%)}
		.fill-4h{fill:hsl(220, 3%, 79%);}
		.fill-2h{fill:hsl(200, 2%, 74%);}
		.fill-h{fill:hsl(195, 2%, 68%);}
		.fill-f{fill:hsl(195, 2%, 68%);}
		.fill-hb{fill:hsl(195, 3%, 53%);}
		.fill-b{fill:hsl(192, 3%, 63%);}
		.fill-2b{fill:hsl(192, 3%, 46%);}
		.fill-4b{fill:hsl(189, 7%, 34%);}
		.fill-5b{fill:hsl(190, 6%, 40%);}
		.fill-6b{fill:hsl(185, 7%, 29%);}
		.fill-7b{fill:hsl(195, 3%, 23%);}
		.fill-8b{fill:hsl(180, 5%, 9%);}
		.fill-9b{fill:hsl(180, 50%, 2%);}

    .stroke-9h{stroke:hsl(180, 3%, 93%)}
    .stroke-8h{stroke:hsl(210, 7%, 94%)}
    .stroke-7h{stroke:hsl(210, 5%, 92%)}
    .stroke-6h{stroke:hsl(210, 3%, 85%)}
    .stroke-5h{stroke:hsl(210, 2%, 84%)}
		.stroke-4h{stroke:hsl(220, 3%, 79%);}
		.stroke-2h{stroke:hsl(200, 2%, 74%);}
		.stroke-h{stroke:hsl(195, 2%, 68%);}
		.stroke-f{stroke:hsl(195, 2%, 68%);}
		.stroke-hb{stroke:hsl(195, 3%, 53%);}
		.stroke-b{stroke:hsl(192, 3%, 63%);}
		.stroke-2b{stroke:hsl(192, 3%, 46%);}
		.stroke-4b{stroke:hsl(189, 7%, 34%);}
		.stroke-5b{stroke:hsl(190, 6%, 40%);}
		.stroke-6b{stroke:hsl(185, 7%, 29%);}
		.stroke-7b{stroke:hsl(195, 3%, 23%);}
		.stroke-8b{stroke:hsl(180, 5%, 9%);}
		.stroke-9b{stroke:hsl(180, 50%, 2%);}
  </style>

  <g id="FittssLaw" clip-path="url(#clip-FittssLaw)">

    <g id="Fitts_s_Law" data-name="Fitts&apos;s Law">

      <g id="Right_Hand" data-name="Right Hand" transform="translate(1134.415 197)">


        <g id="Mobile_wireframe" data-name="Mobile wireframe" transform="translate(0 0)">

          <g transform="translate(0.085 0.102)" class="fill-2b stroke-none">
            <path d="M 116.2825546264648 612.3743896484375 C 83.76025390625 612.3743896484375 44.3037109375 611.9576416015625 43.90901947021484 611.9534301757813 L 43.90363311767578 611.953369140625 L 43.8983268737793 611.953369140625 C 38.10525131225586 611.953369140625 32.48594284057617 610.8189697265625 27.19663429260254 608.5818481445313 C 22.08717346191406 606.4207153320313 17.49825096130371 603.32666015625 13.55725002288818 599.3856811523438 C 9.616327285766602 595.4447631835938 6.522326946258545 590.8557739257813 4.361173152923584 585.7463989257813 C 2.124019384384155 580.4569702148438 0.9896347522735596 574.8377075195313 0.9896347522735596 569.0446166992188 C 0.9888654947280884 568.0847778320313 0.9145578145980835 471.9786987304688 0.9145578145980835 371.9834594726563 C 0.9145578145980835 371.4501647949219 0.9888654947280884 160.4720764160156 0.9896347522735596 158.3410797119141 L 0.9896347522735596 43.89630508422852 C 0.9896347522735596 38.10322570800781 2.124019384384155 32.4839973449707 4.361173152923584 27.19461250305176 C 6.522326946258545 22.08522796630859 9.616327285766602 17.49630355834961 13.55725002288818 13.55530452728271 C 17.49825096130371 9.614304542541504 22.08717346191406 6.520304203033447 27.19663429260254 4.359150409698486 C 32.48594284057617 2.121996641159058 38.10525131225586 0.9876120686531067 43.8983268737793 0.9876120686531067 C 44.29609680175781 0.9885351061820984 84.25863647460938 1.076919674873352 115.6589431762695 1.076919674873352 C 134.1048583984375 1.076919674873352 146.03271484375 1.046842813491821 151.111328125 0.9875351190567017 C 156.1820983886719 0.9283043742179871 168.0910186767578 0.8983043432235718 186.5071716308594 0.8983043432235718 C 217.8690948486328 0.8983043432235718 257.771240234375 0.9866889715194702 258.1706237792969 0.9876120686531067 C 263.9659423828125 0.9876120686531067 269.5851745605469 2.121996641159058 274.8745727539063 4.359150409698486 C 279.9839477539063 6.520304203033447 284.5728759765625 9.614304542541504 288.5138549804688 13.55530452728271 C 292.4548645019531 17.49630355834961 295.5488586425781 22.08522796630859 297.7100219726563 27.19461250305176 C 299.9471740722656 32.4839973449707 301.08154296875 38.10322570800781 301.08154296875 43.89630508422852 C 301.0843200683594 45.44192123413086 301.3561096191406 198.7365417480469 301.08154296875 237.9946136474609 C 300.9754028320313 253.1877593994141 301.1318664550781 278.3403015136719 301.2974853515625 304.9696044921875 C 301.5693969726563 348.6809997558594 301.8505554199219 393.8805236816406 301.0835571289063 406.1017761230469 C 299.8502502441406 425.751953125 301.0690307617188 567.605224609375 301.08154296875 569.052978515625 C 301.0804443359375 574.843017578125 299.9460754394531 580.4595947265625 297.7100219726563 585.7463989257813 C 295.5488586425781 590.8557739257813 292.4548645019531 595.4447631835938 288.5138549804688 599.3856811523438 C 284.5728759765625 603.32666015625 279.9839477539063 606.4207153320313 274.8745727539063 608.5818481445313 C 269.5867919921875 610.8182983398438 263.9690551757813 611.9526977539063 258.1778564453125 611.953369140625 C 257.5125427246094 611.9456176757813 221.6923522949219 611.5324096679688 191.5830993652344 611.5324096679688 C 173.810791015625 611.5324096679688 161.4702453613281 611.67431640625 154.9042510986328 611.9542846679688 C 148.3665618896484 612.2330932617188 135.3723297119141 612.3743896484375 116.2825546264648 612.3743896484375 Z" stroke="none"/>
            <path d="M 186.5071716308594 1.8983154296875 C 168.0930938720703 1.8983154296875 156.1881713867188 1.92828369140625 151.1230163574219 1.98748779296875 C 146.0413970947266 2.04681396484375 134.1095581054688 2.076904296875 115.658935546875 2.076904296875 C 84.25747680664063 2.076904296875 44.29385375976563 1.988525390625 43.8983154296875 1.98760986328125 C 38.23977661132813 1.98760986328125 32.75155639648438 3.09539794921875 27.586181640625 5.2801513671875 C 22.595947265625 7.390869140625 18.11380004882813 10.41290283203125 14.26431274414063 14.26239013671875 C 10.41485595703125 18.11181640625 7.392791748046875 22.593994140625 5.2821044921875 27.584228515625 C 3.097320556640625 32.7496337890625 1.98956298828125 38.23785400390625 1.98956298828125 43.8963623046875 L 1.98956298828125 158.3413696289063 C 1.988800048828125 160.4724731445313 1.91455078125 371.4503784179688 1.91455078125 371.9834594726563 C 1.91455078125 471.9782104492188 1.988800048828125 568.083984375 1.98956298828125 569.0446166992188 C 1.98956298828125 574.703125 3.097320556640625 580.19140625 5.2821044921875 585.3567504882813 C 7.392791748046875 590.3469848632813 10.41485595703125 594.8291625976563 14.26431274414063 598.6785888671875 C 18.11380004882813 602.528076171875 22.595947265625 605.5501708984375 27.586181640625 607.6608276367188 C 32.75155639648438 609.8456420898438 38.23977661132813 610.953369140625 43.8983154296875 610.953369140625 L 43.90902709960938 610.953369140625 L 43.91964721679688 610.9534301757813 C 44.3143310546875 610.9577026367188 83.76556396484375 611.3743896484375 116.2825622558594 611.3743896484375 C 135.3589477539063 611.3743896484375 148.3388671875 611.2333984375 154.8616333007813 610.9552001953125 C 161.4417114257813 610.6746215820313 173.796630859375 610.5322875976563 191.5830993652344 610.5322875976563 C 221.6094970703125 610.5322875976563 257.3133544921875 610.9432983398438 258.1828002929688 610.953369140625 C 263.8376770019531 610.9520263671875 269.3227233886719 609.8442993164063 274.4850158691406 607.6608276367188 C 279.4752502441406 605.5501708984375 283.9573364257813 602.528076171875 287.8067932128906 598.6785888671875 C 291.65625 594.8291625976563 294.6783142089844 590.3469848632813 296.7890319824219 585.3567504882813 C 298.9727172851563 580.1939086914063 300.0804748535156 574.7084350585938 300.08154296875 569.0528564453125 C 300.0296325683594 563.0839233398438 298.8504638671875 425.7174682617188 300.0854797363281 406.0390625 C 300.8504028320313 393.852294921875 300.556640625 346.6349182128906 300.2975463867188 304.975830078125 C 300.1318664550781 278.3430786132813 299.975341796875 253.1873779296875 300.0816345214844 237.9876098632813 C 300.3561096191406 198.7339172363281 300.0843200683594 45.44378662109375 300.08154296875 43.8963623046875 C 300.08154296875 38.23785400390625 298.9737854003906 32.7496337890625 296.7890319824219 27.584228515625 C 294.6783142089844 22.593994140625 291.65625 18.11181640625 287.8067932128906 14.26239013671875 C 283.9573364257813 10.41290283203125 279.4752502441406 7.390869140625 274.4850158691406 5.2801513671875 C 269.3195495605469 3.09539794921875 263.8314208984375 1.98760986328125 258.1683959960938 1.98760986328125 C 257.7690124511719 1.9866943359375 217.8678588867188 1.8983154296875 186.5071716308594 1.8983154296875 M 186.5071563720703 -0.1016845703125 C 218.2330322265625 -0.1016845703125 258.1728515625 -0.01239013671875 258.1728515625 -0.01239013671875 C 282.4229431152344 -0.01239013671875 302.08154296875 19.646240234375 302.08154296875 43.8963623046875 C 302.08154296875 43.8963623046875 302.3592529296875 198.2850036621094 302.08154296875 238.0016174316406 C 301.803955078125 277.7181396484375 303.3270263671875 386.3212890625 302.08154296875 406.1643676757813 C 300.836181640625 426.0074462890625 302.08154296875 569.0446166992188 302.08154296875 569.0446166992188 C 302.08154296875 593.2947387695313 282.4229431152344 612.953369140625 258.1728515625 612.953369140625 C 258.1728515625 612.953369140625 222.1673583984375 612.5323486328125 191.5830688476563 612.5323486328125 C 176.2881469726563 612.5323486328125 162.3532104492188 612.6375732421875 154.9468688964844 612.953369140625 C 147.5418548583984 613.2691040039063 132.7329864501953 613.3743896484375 116.2825622558594 613.3743896484375 C 83.37867736816406 613.3743896484375 43.8983154296875 612.953369140625 43.8983154296875 612.953369140625 C 19.64816284179688 612.953369140625 -0.01043701171875 593.2947387695313 -0.01043701171875 569.0446166992188 C -0.01043701171875 569.0446166992188 -0.08544921875 473.1357727050781 -0.08544921875 371.9834594726563 C -0.08544921875 371.44384765625 -0.01043701171875 158.3406982421875 -0.01043701171875 158.3406982421875 L -0.01043701171875 43.8963623046875 C -0.01043701171875 19.646240234375 19.64816284179688 -0.01239013671875 43.8983154296875 -0.01239013671875 C 43.8983154296875 -0.01239013671875 83.896484375 0.076904296875 115.6589050292969 0.076904296875 C 131.5430297851563 0.076904296875 145.3630828857422 0.0545654296875 151.0996398925781 -0.01239013671875 C 156.8351287841797 -0.079345703125 170.6456756591797 -0.1016845703125 186.5071563720703 -0.1016845703125 Z" stroke="none" fill="#1a1a1a"/>
          </g>

          <g transform="translate(17.639 18.531)" class="fill-8h stroke-none">
            <path d="M 238.8634490966797 575.9605712890625 L 28.10158538818359 575.9605712890625 C 24.44244194030762 575.9605712890625 20.8932991027832 575.244140625 17.5527286529541 573.8311767578125 C 14.32558441162109 572.4662475585938 11.42715644836426 570.511962890625 8.937870979309082 568.022705078125 C 6.448585033416748 565.5333862304688 4.494298934936523 562.6349487304688 3.12937068939209 559.4078369140625 C 1.716441988945007 556.0672607421875 1.000013470649719 552.5181274414063 1.000013470649719 548.8589477539063 L 1.000013470649719 421.8047485351563 L 1.000013470649719 128.107177734375 L 1.000013470649719 28.10161209106445 C 1.000013470649719 24.44246864318848 1.716441988945007 20.89332580566406 3.12937068939209 17.55275535583496 C 4.494298934936523 14.32561206817627 6.448585033416748 11.42718410491943 8.937870979309082 8.937897682189941 C 11.42715644836426 6.448612213134766 14.32558441162109 4.494326591491699 17.5527286529541 3.129397869110107 C 20.8932991027832 1.716469407081604 24.44244194030762 1.000040888786316 28.10158538818359 1.000040888786316 L 238.8634490966797 1.000040888786316 C 242.5225830078125 1.000040888786316 246.0717315673828 1.716469407081604 249.4122924804688 3.129397869110107 C 252.6394348144531 4.494326591491699 255.5378723144531 6.448612213134766 258.0271606445313 8.937897682189941 C 260.5164489746094 11.42718410491943 262.4707336425781 14.32561206817627 263.8356628417969 17.55275535583496 C 265.2485961914063 20.89332580566406 265.9650268554688 24.44246864318848 265.9650268554688 28.10161209106445 L 265.9650268554688 548.8589477539063 C 265.9650268554688 552.5181274414063 265.2485961914063 556.0672607421875 263.8356628417969 559.4078369140625 C 262.4707336425781 562.6349487304688 260.5164489746094 565.5333862304688 258.0271606445313 568.022705078125 C 255.5378723144531 570.511962890625 252.6394348144531 572.4662475585938 249.4122924804688 573.8311767578125 C 246.0717315673828 575.244140625 242.5225830078125 575.9605712890625 238.8634490966797 575.9605712890625 Z" stroke="none"/>
            <path d="M 28.10157775878906 1.99993896484375 C 24.57701110839844 1.99993896484375 21.158935546875 2.6898193359375 17.94230651855469 4.05035400390625 C 14.83436584472656 5.3648681640625 12.042724609375 7.2471923828125 9.64501953125 9.64495849609375 C 7.247222900390625 12.04266357421875 5.36492919921875 14.8343505859375 4.050384521484375 17.9422607421875 C 2.68988037109375 21.15887451171875 2 24.57696533203125 2 28.1015625 L 2 128.1071166992188 L 2 421.8047485351563 L 2 548.8589477539063 C 2 552.383544921875 2.68988037109375 555.8016357421875 4.050384521484375 559.0182495117188 C 5.36492919921875 562.1261596679688 7.247222900390625 564.917724609375 9.64501953125 567.3155517578125 C 12.042724609375 569.7132568359375 14.83436584472656 571.5956420898438 17.94230651855469 572.9100952148438 C 21.158935546875 574.2706298828125 24.57701110839844 574.96044921875 28.10157775878906 574.96044921875 L 238.8634338378906 574.96044921875 C 242.3880157470703 574.96044921875 245.8060913085938 574.2706298828125 249.0227355957031 572.9100952148438 C 252.1306610107422 571.5956420898438 254.9223022460938 569.7132568359375 257.3200073242188 567.3155517578125 C 259.7178039550781 564.917724609375 261.60009765625 562.1261596679688 262.9146423339844 559.0182495117188 C 264.275146484375 555.8016357421875 264.9650268554688 552.383544921875 264.9650268554688 548.8589477539063 L 264.9650268554688 28.1015625 C 264.9650268554688 24.57696533203125 264.275146484375 21.15887451171875 262.9146423339844 17.9422607421875 C 261.60009765625 14.8343505859375 259.7178039550781 12.04266357421875 257.3200073242188 9.64495849609375 C 254.9223022460938 7.2471923828125 252.1306610107422 5.3648681640625 249.0227355957031 4.05035400390625 C 245.8060913085938 2.6898193359375 242.3880157470703 1.99993896484375 238.8634338378906 1.99993896484375 L 28.10157775878906 1.99993896484375 M 28.10157775878906 -6.103515625e-05 L 238.8634338378906 -6.103515625e-05 C 254.3835144042969 -6.103515625e-05 266.9650268554688 12.58148193359375 266.9650268554688 28.1015625 L 266.9650268554688 548.8589477539063 C 266.9650268554688 564.3790283203125 254.3835144042969 576.96044921875 238.8634338378906 576.96044921875 L 28.10157775878906 576.96044921875 C 12.58151245117188 576.96044921875 0 564.3790283203125 0 548.8589477539063 C 0 548.8589477539063 0 526.9927368164063 0 421.8047485351563 C 0 316.6167602539063 0 128.1071166992188 0 128.1071166992188 L 0 28.1015625 C 0 12.58148193359375 12.58151245117188 -6.103515625e-05 28.10157775878906 -6.103515625e-05 Z" stroke="none" fill="#1a1a1a"/>
          </g>

          <g transform="translate(284.604 595.492) rotate(180)" class="fill-6h stroke-none">
            <path d="M 54.41931533813477 527.6083374023438 C 54.41416931152344 527.6083374023438 54.41228866577148 527.6083374023438 54.40714645385742 527.6083374023438 C 46.19181060791016 527.6076049804688 37.93487930297852 526.8858032226563 29.86567878723145 525.4629516601563 C 20.0174560546875 523.7265625 10.30978298187256 520.923828125 1.000011324882507 517.129638671875 L 1.000011324882507 448.8534851074219 L 1.000011324882507 155.1561431884766 L 1.000011324882507 28.10174179077148 C 1.000011324882507 24.44254302978516 1.716411352157593 20.89340972900391 3.129411220550537 17.55280876159668 C 4.494344711303711 14.32560920715332 6.448611259460449 11.42714214324951 8.937944412231445 8.937875747680664 C 11.42721176147461 6.448609352111816 14.32574462890625 4.49434232711792 17.55287742614746 3.129342555999756 C 20.89354515075684 1.716409206390381 24.44274520874023 1.000009179115295 28.10201072692871 1.000009179115295 L 238.8641510009766 1.000009179115295 C 242.2176971435547 1.000009179115295 245.4861297607422 1.603760838508606 248.5850067138672 2.795258760452271 C 254.9854583740234 13.22072601318359 260.8319702148438 24.5373649597168 265.9661560058594 36.43843078613281 L 265.9661560058594 335.7198791503906 C 255.6058654785156 363.8984985351563 242.5909118652344 390.1921691894531 227.2804718017578 413.8758239746094 C 212.2002716064453 437.2032775878906 195.1459503173828 457.6160888671875 176.5912780761719 474.5472106933594 C 157.9578704833984 491.5501403808594 138.150146484375 504.7301940917969 117.7182083129883 513.721435546875 C 96.77938842773438 522.9356079101563 75.48048400878906 527.6083374023438 54.41931533813477 527.6083374023438 Z" stroke="none"/>
            <path d="M 28.10200500488281 2 C 24.57728576660156 2 21.15914916992188 2.6898193359375 17.94242858886719 4.05035400390625 C 14.83444213867188 5.36492919921875 12.04278564453125 7.2471923828125 9.64501953125 9.64495849609375 C 7.247222900390625 12.04278564453125 5.36492919921875 14.83441162109375 4.05035400390625 17.94232177734375 C 2.689849853515625 21.15899658203125 2 24.57708740234375 2 28.10174560546875 L 2 155.1561279296875 L 2 448.8534545898438 L 2 516.45556640625 C 11.0535888671875 520.0950927734375 20.48020935058594 522.7926635742188 30.03929138183594 524.4780883789063 C 38.05522155761719 525.8916015625 46.25364685058594 526.6083374023438 54.40701293945313 526.6083374023438 C 75.3338623046875 526.6083374023438 96.49929809570313 521.9635620117188 117.3153686523438 512.802978515625 C 137.6479339599609 503.8551940917969 157.3644409179688 490.734619140625 175.9172210693359 473.8057556152344 C 194.4086456298828 456.9327392578125 211.4072265625 436.5863952636719 226.4406433105469 413.3318481445313 C 241.6802978515625 389.75830078125 254.6415405273438 363.5865783691406 264.9661560058594 335.541748046875 L 264.9661560058594 36.64520263671875 C 259.9184265136719 24.96783447265625 254.1831512451172 13.85858154296875 247.9114379882813 3.60992431640625 C 245.0211486816406 2.54132080078125 241.9808502197266 2 238.8641510009766 2 L 28.10200500488281 2 M 28.10200500488281 0 L 238.8641510009766 0 C 242.5370025634766 0 246.045654296875 0.70489501953125 249.2613677978516 1.986083984375 C 255.8150024414063 12.627685546875 261.7355651855469 24.0833740234375 266.9661560058594 36.23211669921875 L 266.9661560058594 335.8978271484375 C 224.8309631347656 450.6446533203125 140.7521057128906 528.6083374023438 54.40702819824219 528.6083374023438 C 46.1817626953125 528.6083374023438 37.92385864257813 527.8992919921875 29.69200134277344 526.44775390625 C 19.40478515625 524.6339111328125 9.495147705078125 521.72216796875 0 517.8001708984375 L 0 448.8534545898438 C 0 448.8534545898438 0 260.3436889648438 0 155.1561279296875 C 0 49.96847534179688 0 28.10174560546875 0 28.10174560546875 C 0 12.58148193359375 12.58143615722656 0 28.10200500488281 0 Z" stroke="none" fill="#333232"/>
          </g>

          <g transform="translate(60.903 342.047)" class="fill-4h stroke-none">
            <path d="M 195.599609375 252.4450531005859 L 13.89760589599609 252.4450531005859 C 13.6258373260498 251.5279083251953 13.35640621185303 250.6036834716797 13.09408187866211 249.6886444091797 C 9.091814994812012 235.7314453125 6.037314891815186 221.5125122070313 4.015448570251465 207.4266815185547 C 2.045281887054443 193.7012176513672 1.030981779098511 179.9363098144531 1.0007483959198 166.5142822265625 C 0.9710817933082581 153.3397827148438 1.888548493385315 140.3627777099609 3.727681875228882 127.943717956543 C 5.548481941223145 115.648551940918 8.288082122802734 103.793586730957 11.87038135528564 92.70815277099609 C 15.45004844665527 81.63085174560547 19.90041542053223 71.23155212402344 25.09781455993652 61.7990837097168 C 30.33968162536621 52.28601837158203 36.38751602172852 43.67368316650391 43.07331466674805 36.20138168334961 C 49.87468338012695 28.59984970092773 57.40691375732422 22.10054969787598 65.4608154296875 16.88394927978516 C 73.71831512451172 11.53544998168945 82.62891387939453 7.469016551971436 91.94508361816406 4.79764986038208 C 100.733283996582 2.277716398239136 109.8842163085938 1.000016450881958 119.143684387207 1.000016450881958 C 127.9958801269531 1.000016450881958 137.0736083984375 2.167116403579712 146.1246490478516 4.468883037567139 C 155.0240478515625 6.73211669921875 164.0133209228516 10.12108325958252 172.8427124023438 14.54164981842041 C 181.5873413085938 18.9197826385498 190.2777099609375 24.36075019836426 198.6724090576172 30.71338272094727 C 206.951416015625 36.97846221923828 215.0346221923828 44.19985961914063 222.7016448974609 52.18002319335938 L 222.7016448974609 225.3431091308594 C 222.7016448974609 229.0020141601563 221.9851531982422 232.5510559082031 220.5720825195313 235.8916778564453 C 219.2070159912109 239.1187896728516 217.2526092529297 242.0173187255859 214.76318359375 244.5067138671875 C 212.2737426757813 246.9961090087891 209.3752136230469 248.9504852294922 206.1480865478516 250.3155212402344 C 202.8074798583984 251.7285766601563 199.2584838867188 252.4450531005859 195.599609375 252.4450531005859 Z" stroke="none"/>
            <path d="M 195.599609375 251.4450531005859 C 199.1239013671875 251.4450531005859 202.5418243408203 250.7551727294922 205.7584991455078 249.3945617675781 C 208.8664398193359 248.0799102783203 211.6581420898438 246.1974945068359 214.0560760498047 243.7995910644531 C 216.4540100097656 241.4017028808594 218.3364410400391 238.6100311279297 219.6510772705078 235.5020904541016 C 221.0117492675781 232.2854156494141 221.7016448974609 228.8674468994141 221.7016448974609 225.3431243896484 L 221.7016448974609 52.58309555053711 C 214.1539154052734 44.75555801391602 206.2059631347656 37.66844177246094 198.0689697265625 31.51080894470215 C 189.7230072021484 25.19505882263184 181.0850067138672 19.78666687011719 172.3950042724609 15.43588066101074 C 163.6296844482422 11.0473804473877 154.7081146240234 7.68363094329834 145.8781127929688 5.438059329986572 C 136.9075775146484 3.156738042831421 127.9127883911133 2.000023603439331 119.1436157226563 2.000023603439331 C 109.9774322509766 2.000023603439331 100.9192581176758 3.264702320098877 92.22071838378906 5.75891637802124 C 82.99947357177734 8.403059005737305 74.17903900146484 12.42845249176025 66.00443267822266 17.72323799133301 C 58.02511215209961 22.89155960083008 50.56068420410156 29.33284568786621 43.81854248046875 36.86816787719727 C 37.18300628662109 44.28430938720703 31.17911338806152 52.83462905883789 25.97364807128906 62.28170394897461 C 20.80693435668945 71.65845489501953 16.38204193115234 81.99884796142578 12.82193374633789 93.01563262939453 C 9.25654125213623 104.048698425293 6.52961254119873 115.8494873046875 4.716898441314697 128.0902404785156 C 2.885005474090576 140.4601593017578 1.971184134483337 153.3871307373047 2.000755548477173 166.5120239257813 C 2.030898332595825 179.8874206542969 3.041755676269531 193.6053161621094 5.00529146194458 207.2845916748047 C 7.0207200050354 221.3254547119141 10.06561279296875 235.4994506835938 14.05539798736572 249.4130554199219 C 14.24880981445313 250.0877990722656 14.44604396820068 250.7673034667969 14.64517688751221 251.4450531005859 L 195.599609375 251.4450531005859 M 195.599609375 253.4450531005859 L 13.15186309814453 253.4450531005859 C 12.80714797973633 252.2916717529297 12.46582698822021 251.1258392333984 12.13282680511475 249.9642028808594 C -20.5473518371582 135.9985961914063 15.06346988677979 25.80291557312012 91.66943359375 3.83638072013855 C 100.6964263916016 1.247985482215881 109.8944625854492 2.029854840657208e-05 119.1436309814453 2.029854840657208e-05 C 155.3741607666016 2.029854840657208e-05 192.4517822265625 19.13393974304199 223.7016448974609 51.77802276611328 L 223.7016448974609 225.3431243896484 C 223.7016448974609 240.8624114990234 211.11865234375 253.4450531005859 195.599609375 253.4450531005859 Z" stroke="none" fill="#333232"/>
          </g>

        </g>

        <text id="Easy" transform="translate(218.585 559.64)" class="fill-2b font-48 PenScript">
        <tspan x="-36.399" y="0">Easy</tspan>
        </text>
        <text id="Medium" transform="translate(157.585 259.64)" class="fill-2b font-48 PenScript">
          <tspan x="-60.836" y="0">Medium</tspan>
        </text>
        <text id="Hard" transform="translate(75.585 72.64)" class="fill-2b font-48 PenScript">
          <tspan x="-39.406" y="0">Hard</tspan>
        </text>
        <text id="Right_Hand-2" data-name="Right Hand" transform="translate(142.585 688.64)" class="fill-hb font-48 PenScript">
          <tspan x="-87.153" y="0">Right Hand</tspan>
        </text>
      
      </g>

      <g id="Left_Hand" data-name="Left Hand" transform="translate(477.731 197)">

        <g id="Mobile_wireframe-2" data-name="Mobile wireframe" transform="translate(0 0)">

          <g transform="translate(0.085 0.102)" class="fill-2b stroke-none">
            <path d="M 186.2193603515625 612.3743896484375 C 186.2153930664063 612.3743896484375 186.2143249511719 612.3743896484375 186.2103576660156 612.3743896484375 C 167.1202850341797 612.3743896484375 154.1260528564453 612.2330932617188 147.5886688232422 611.9542846679688 C 141.0226745605469 611.67431640625 128.68212890625 611.5324096679688 110.9098205566406 611.5324096679688 C 80.80055999755859 611.5324096679688 44.98036575317383 611.9456176757813 44.31505966186523 611.953369140625 C 38.52385711669922 611.9526977539063 32.90613174438477 610.8182983398438 27.61836242675781 608.5818481445313 C 22.50897789001465 606.4207153320313 17.92005348205566 603.32666015625 13.97905445098877 599.3856811523438 C 10.03805446624756 595.4447631835938 6.94405460357666 590.8557739257813 4.782900810241699 585.7463989257813 C 2.546838998794556 580.4595947265625 1.412472605705261 574.843017578125 1.411365389823914 569.052978515625 C 1.423896551132202 567.605224609375 2.642748355865479 425.751953125 1.409362077713013 406.1017761230469 C 0.642362117767334 393.8805236816406 0.9235159754753113 348.6809997558594 1.195438981056213 304.9696044921875 C 1.361054420471191 278.3403015136719 1.517516016960144 253.1877593994141 1.411362171173096 237.9946136474609 C 1.136823654174805 198.7365417480469 1.408592939376831 45.44192123413086 1.411362171173096 43.89807510375977 C 1.411362171173096 38.10322570800781 2.545746803283691 32.4839973449707 4.782900810241699 27.19461250305176 C 6.94405460357666 22.08522796630859 10.03805446624756 17.49630355834961 13.97905445098877 13.55530452728271 C 17.92005348205566 9.614304542541504 22.50897789001465 6.520304203033447 27.61836242675781 4.359150409698486 C 32.90774536132813 2.121996641159058 38.5269775390625 0.9876120686531067 44.32005310058594 0.9876120686531067 C 44.7216682434082 0.9866889715194702 84.62382507324219 0.8983043432235718 115.9857482910156 0.8983043432235718 C 134.4019012451172 0.8983043432235718 146.3108215332031 0.9283043742179871 151.381591796875 0.9875351190567017 C 156.4607391357422 1.046842813491821 168.388671875 1.076919674873352 186.833984375 1.076919674873352 C 218.2342834472656 1.076919674873352 258.1968383789063 0.9885351061820984 258.5968322753906 0.9876120686531067 C 264.3876647949219 0.9876120686531067 270.0069885253906 2.121996641159058 275.2962951660156 4.359150409698486 C 280.40576171875 6.520304203033447 284.9946594238281 9.614304542541504 288.9356689453125 13.55530452728271 C 292.8766784667969 17.49630355834961 295.9706726074219 22.08522796630859 298.1318359375 27.19461250305176 C 300.3689880371094 32.4839973449707 301.5033569335938 38.10322570800781 301.5033569335938 43.89630508422852 L 301.5033569335938 158.3406829833984 C 301.5041198730469 160.4720764160156 301.578369140625 371.4501647949219 301.578369140625 371.9834594726563 C 301.578369140625 471.9786987304688 301.5041198730469 568.0847778320313 301.5033569335938 569.0438232421875 C 301.5033569335938 574.8377075195313 300.3689880371094 580.4569702148438 298.1318359375 585.7463989257813 C 295.9706726074219 590.8557739257813 292.8766784667969 595.4447631835938 288.9356689453125 599.3856811523438 C 284.9946594238281 603.32666015625 280.40576171875 606.4207153320313 275.2962951660156 608.5818481445313 C 270.0069885253906 610.8189697265625 264.3876647949219 611.953369140625 258.5946044921875 611.953369140625 L 258.5892944335938 611.953369140625 L 258.5838928222656 611.9534301757813 C 258.1892700195313 611.9576416015625 218.7390899658203 612.3743896484375 186.2193603515625 612.3743896484375 Z" stroke="none"/>
            <path d="M 115.9857482910156 1.8983154296875 C 84.62506103515625 1.8983154296875 44.72390747070313 1.9866943359375 44.320068359375 1.98760986328125 C 38.66152954101563 1.98760986328125 33.17337036132813 3.09539794921875 28.00790405273438 5.2801513671875 C 23.01766967773438 7.390869140625 18.53558349609375 10.41290283203125 14.68612670898438 14.26239013671875 C 10.836669921875 18.11181640625 7.814605712890625 22.593994140625 5.703887939453125 27.584228515625 C 3.519134521484375 32.7496337890625 2.411376953125 38.23785400390625 2.411376953125 43.9000244140625 C 2.408599853515625 45.44378662109375 2.136810302734375 198.7339172363281 2.411285400390625 237.9876098632813 C 2.517578125 253.1873779296875 2.361053466796875 278.3430786132813 2.19537353515625 304.975830078125 C 1.936279296875 346.6349182128906 1.64251708984375 393.852294921875 2.407440185546875 406.0390625 C 3.6424560546875 425.7174682617188 2.463287353515625 563.0839233398438 2.411376953125 569.0528564453125 C 2.412445068359375 574.7084350585938 3.52020263671875 580.1939086914063 5.703887939453125 585.3567504882813 C 7.814605712890625 590.3469848632813 10.836669921875 594.8291625976563 14.68612670898438 598.6785888671875 C 18.53558349609375 602.528076171875 23.01766967773438 605.5501708984375 28.00790405273438 607.6608276367188 C 33.17019653320313 609.8442993164063 38.65524291992188 610.9520263671875 44.31011962890625 610.953369140625 C 45.1795654296875 610.9432983398438 80.8834228515625 610.5324096679688 110.9098205566406 610.5322875976563 C 128.6962890625 610.5322875976563 141.0512084960938 610.6746215820313 147.6312866210938 610.9552001953125 C 154.154052734375 611.2333984375 167.1339721679688 611.3743896484375 186.2103576660156 611.3743896484375 C 218.7268218994141 611.3743896484375 258.1785888671875 610.9577026367188 258.5732727050781 610.9534301757813 L 258.5838928222656 610.953369140625 L 258.5946044921875 610.953369140625 C 264.2531433105469 610.953369140625 269.7413635253906 609.8456420898438 274.90673828125 607.6608276367188 C 279.89697265625 605.5501708984375 284.3790588378906 602.528076171875 288.228515625 598.6785888671875 C 292.0779724121094 594.8291625976563 295.1000671386719 590.3469848632813 297.2107543945313 585.3567504882813 C 299.3955078125 580.19140625 300.5032958984375 574.703125 300.5032958984375 569.0430908203125 C 300.5040588378906 568.083984375 300.578369140625 471.9783020019531 300.578369140625 371.9834594726563 C 300.578369140625 371.4503784179688 300.5040588378906 160.4724731445313 300.5032958984375 158.3406982421875 L 300.5032958984375 43.8963623046875 C 300.5032958984375 38.23785400390625 299.3955078125 32.7496337890625 297.2107543945313 27.584228515625 C 295.1000671386719 22.593994140625 292.0779724121094 18.11181640625 288.228515625 14.26239013671875 C 284.3790588378906 10.41290283203125 279.89697265625 7.390869140625 274.90673828125 5.2801513671875 C 269.7413635253906 3.09539794921875 264.2531433105469 1.98760986328125 258.5990600585938 1.98760986328125 C 258.1990661621094 1.988525390625 218.2354431152344 2.076904296875 186.833984375 2.076904296875 C 168.3833618164063 2.076904296875 156.4515228271484 2.04681396484375 151.3699035644531 1.98748779296875 C 146.3047485351563 1.92828369140625 134.3998260498047 1.8983154296875 115.9857482910156 1.8983154296875 M 115.9857635498047 -0.1016845703125 C 131.8472442626953 -0.1016845703125 145.6577911376953 -0.079345703125 151.3932800292969 -0.01239013671875 C 157.1298370361328 0.0545654296875 170.9498901367188 0.076904296875 186.8340148925781 0.076904296875 C 218.596435546875 0.076904296875 258.5946044921875 -0.01239013671875 258.5946044921875 -0.01239013671875 C 282.8447570800781 -0.01239013671875 302.5032958984375 19.646240234375 302.5032958984375 43.8963623046875 L 302.5032958984375 158.3406982421875 C 302.5032958984375 158.3406982421875 302.578369140625 371.44384765625 302.578369140625 371.9834594726563 C 302.578369140625 473.1357727050781 302.5032958984375 569.0446166992188 302.5032958984375 569.0446166992188 C 302.5032958984375 593.2947387695313 282.8447570800781 612.953369140625 258.5946044921875 612.953369140625 C 258.5946044921875 612.953369140625 219.1142272949219 613.3743896484375 186.2103576660156 613.3743896484375 C 169.7599334716797 613.3743896484375 154.9510650634766 613.2691040039063 147.5460510253906 612.953369140625 C 140.1397094726563 612.6375732421875 126.2047882080078 612.5322875976563 110.9098510742188 612.5323486328125 C 80.3255615234375 612.5323486328125 44.320068359375 612.953369140625 44.320068359375 612.953369140625 C 20.06997680664063 612.953369140625 0.411376953125 593.2947387695313 0.411376953125 569.0446166992188 C 0.411376953125 569.0446166992188 1.65673828125 426.0074462890625 0.411376953125 406.1643676757813 C -0.8341064453125 386.3212890625 0.68896484375 277.7181396484375 0.411376953125 238.0016174316406 C 0.1336669921875 198.2850036621094 0.411376953125 43.8963623046875 0.411376953125 43.8963623046875 C 0.411376953125 19.646240234375 20.06997680664063 -0.01239013671875 44.320068359375 -0.01239013671875 C 44.320068359375 -0.01239013671875 84.25990295410156 -0.1016845703125 115.9857635498047 -0.1016845703125 Z" stroke="none" fill="#1a1a1a"/>
          </g>

          <g transform="translate(285.025 595.492) rotate(180)" class="fill-8h stroke-none">
            <path d="M 238.8634490966797 575.9605712890625 L 28.10158538818359 575.9605712890625 C 24.44244194030762 575.9605712890625 20.8932991027832 575.244140625 17.5527286529541 573.8312377929688 C 14.32558441162109 572.4661865234375 11.42715644836426 570.5120239257813 8.937870979309082 568.022705078125 C 6.448585033416748 565.533447265625 4.494298934936523 562.6349487304688 3.12937068939209 559.4077758789063 C 1.716441988945007 556.0671997070313 1.000013470649719 552.51806640625 1.000013470649719 548.8589477539063 L 1.000013470649719 448.8533630371094 L 1.000013470649719 155.1557922363281 L 1.000013470649719 28.10157203674316 C 1.000013470649719 24.44242858886719 1.716441988945007 20.89328575134277 3.12937068939209 17.55271339416504 C 4.494298934936523 14.32557106018066 6.448585033416748 11.42714309692383 8.937870979309082 8.937856674194336 C 11.42715644836426 6.44857120513916 14.32558441162109 4.494285583496094 17.5527286529541 3.129357099533081 C 20.8932991027832 1.716428518295288 24.44244194030762 0.9999999403953552 28.10158538818359 0.9999999403953552 L 238.8634490966797 0.9999999403953552 C 242.5225830078125 0.9999999403953552 246.0717315673828 1.716428518295288 249.4122924804688 3.129357099533081 C 252.6394348144531 4.494285583496094 255.5378723144531 6.44857120513916 258.0271606445313 8.937856674194336 C 260.5164489746094 11.42714309692383 262.4707336425781 14.32557106018066 263.8356628417969 17.55271339416504 C 265.2485961914063 20.89328575134277 265.9650268554688 24.44242858886719 265.9650268554688 28.10157203674316 L 265.9650268554688 548.8589477539063 C 265.9650268554688 552.51806640625 265.2485961914063 556.0671997070313 263.8356628417969 559.4077758789063 C 262.4707336425781 562.6349487304688 260.5164489746094 565.533447265625 258.0271606445313 568.022705078125 C 255.5378723144531 570.5120239257813 252.6394348144531 572.4661865234375 249.4122924804688 573.8312377929688 C 246.0717315673828 575.244140625 242.5225830078125 575.9605712890625 238.8634490966797 575.9605712890625 Z" stroke="none"/>
            <path d="M 238.8634490966797 574.9605712890625 C 242.3880157470703 574.9605712890625 245.8060913085938 574.2706909179688 249.0227203369141 572.9102172851563 C 252.1306610107422 571.5956420898438 254.9223022460938 569.71337890625 257.3200073242188 567.3155517578125 C 259.7178039550781 564.9177856445313 261.60009765625 562.126220703125 262.9146423339844 559.018310546875 C 264.275146484375 555.8016357421875 264.9650268554688 552.3834838867188 264.9650268554688 548.8589477539063 L 264.9650268554688 28.10157203674316 C 264.9650268554688 24.57699966430664 264.275146484375 21.15892791748047 262.9146423339844 17.94228553771973 C 261.60009765625 14.83435726165771 259.7178039550781 12.04271411895752 257.3200073242188 9.644999504089355 C 254.9223022460938 7.247214317321777 252.1306610107422 5.364928722381592 249.0227203369141 4.050356864929199 C 245.8060913085938 2.689857006072998 242.3880157470703 1.99999988079071 238.8634490966797 1.99999988079071 L 28.10158538818359 1.99999988079071 C 24.57701301574707 1.99999988079071 21.1589412689209 2.689857006072998 17.94229888916016 4.050356864929199 C 14.83437061309814 5.364928722381592 12.04272747039795 7.247214317321777 9.645013809204102 9.644999504089355 C 7.247227668762207 12.04271411895752 5.364942073822021 14.83435726165771 4.050370693206787 17.94228553771973 C 2.689870595932007 21.15892791748047 2.00001335144043 24.57699966430664 2.00001335144043 28.10157203674316 L 2.00001335144043 155.1557922363281 L 2.00001335144043 448.8533630371094 L 2.00001335144043 548.8589477539063 C 2.00001335144043 552.3834838867188 2.689870595932007 555.8016357421875 4.050370693206787 559.018310546875 C 5.364942073822021 562.126220703125 7.247227668762207 564.9177856445313 9.645013809204102 567.3155517578125 C 12.04272747039795 569.71337890625 14.83437061309814 571.5956420898438 17.94229888916016 572.9102172851563 C 21.1589412689209 574.2706909179688 24.57701301574707 574.9605712890625 28.10158538818359 574.9605712890625 L 238.8634490966797 574.9605712890625 M 238.8634490966797 576.9605712890625 L 28.10158538818359 576.9605712890625 C 12.58151340484619 576.9605712890625 1.342773430224042e-05 564.3790893554688 1.342773430224042e-05 548.8589477539063 L 1.342773430224042e-05 448.8533630371094 C 1.342773430224042e-05 448.8533630371094 1.342773430224042e-05 260.3437194824219 1.342773430224042e-05 155.1557922363281 C 1.342773430224042e-05 49.9677848815918 1.342773430224042e-05 28.10157203674316 1.342773430224042e-05 28.10157203674316 C 1.342773430224042e-05 12.58150005340576 12.58151340484619 -6.975443511691992e-08 28.10158538818359 -6.975443511691992e-08 L 238.8634490966797 -6.975443511691992e-08 C 254.3835144042969 -6.975443511691992e-08 266.9650268554688 12.58150005340576 266.9650268554688 28.10157203674316 L 266.9650268554688 548.8589477539063 C 266.9650268554688 564.3790893554688 254.3835144042969 576.9605712890625 238.8634490966797 576.9605712890625 Z" stroke="none" fill="#1a1a1a"/>
          </g>

          <g transform="translate(18.06 66.883)" class="fill-6h stroke-none">
            <path d="M 238.8641510009766 527.6083374023438 L 28.10201072692871 527.6083374023438 C 24.44274520874023 527.6083374023438 20.89354515075684 526.8919067382813 17.55287742614746 525.47900390625 C 14.32574462890625 524.114013671875 11.42721176147461 522.1597290039063 8.937944412231445 519.6704711914063 C 6.448611259460449 517.1812133789063 4.494344711303711 514.28271484375 3.129411220550537 511.0555419921875 C 1.716411352157593 507.7149353027344 1.000011324882507 504.1658020019531 1.000011324882507 500.506591796875 L 1.000011324882507 373.4522094726563 L 1.000011324882507 79.75485992431641 L 1.000011324882507 11.47881126403809 C 10.30934619903564 7.684683799743652 20.01706504821777 4.881935119628906 29.86567878723145 3.145395040512085 C 37.93881225585938 1.721794962882996 46.19574356079102 0.9999949336051941 54.40707778930664 0.9999949336051941 C 75.47354125976563 0.9999949336051941 96.77447509765625 5.673261642456055 117.7182083129883 14.890061378479 C 138.1504058837891 23.88166236877441 157.9581451416016 37.06166076660156 176.5912780761719 54.06386184692383 C 195.1461486816406 70.99465942382813 212.2004852294922 91.40692901611328 227.2804718017578 114.733528137207 C 242.5910491943359 138.4167175292969 255.6059417724609 164.7100524902344 265.9661560058594 192.8883819580078 L 265.9661560058594 492.169921875 C 260.8319702148438 504.0709838867188 254.9854583740234 515.3876342773438 248.5850067138672 525.8130493164063 C 245.4861297607422 527.0045776367188 242.2176971435547 527.6083374023438 238.8641510009766 527.6083374023438 Z" stroke="none"/>
            <path d="M 238.8641510009766 526.6083374023438 C 241.9808502197266 526.6083374023438 245.0210418701172 526.0670776367188 247.9114532470703 524.9983520507813 C 254.1832275390625 514.7495727539063 259.9184875488281 503.6403503417969 264.9661560058594 491.963134765625 L 264.9661560058594 193.0665740966797 C 254.6415405273438 165.0217590332031 241.6803131103516 138.8499755859375 226.4406433105469 115.2764358520508 C 211.4072265625 92.02193450927734 194.4086456298828 71.67558288574219 175.9172210693359 54.80258178710938 C 157.3644409179688 37.87365341186523 137.6479339599609 24.75308036804199 117.3153610229492 15.80529499053955 C 96.49936676025391 6.644794940948486 75.33393859863281 2.000009298324585 54.40707778930664 2.000009298324585 C 46.25371932983398 2.000009298324585 38.05522155761719 2.716723442077637 30.03929138183594 4.130223274230957 C 20.48020172119141 5.815670967102051 11.0535831451416 8.513267517089844 2.000006675720215 12.15285301208496 L 2.000006675720215 79.75486755371094 L 2.000006675720215 373.4522094726563 L 2.000006675720215 500.506591796875 C 2.000006675720215 504.0312194824219 2.689863681793213 507.4493713378906 4.050363540649414 510.666015625 C 5.364934921264648 513.77392578125 7.247220993041992 516.5655517578125 9.64500617980957 518.96337890625 C 12.04279232025146 521.3611450195313 14.83443546295166 523.243408203125 17.94243431091309 524.5579833984375 C 21.15914916992188 525.9185180664063 24.57729148864746 526.6083374023438 28.10200691223145 526.6083374023438 L 238.8641510009766 526.6083374023438 M 238.8641510009766 528.6083374023438 L 28.10200691223145 528.6083374023438 C 12.58143520355225 528.6083374023438 6.57435839457321e-06 516.02685546875 6.57435839457321e-06 500.506591796875 C 6.57435839457321e-06 500.506591796875 6.57435839457321e-06 478.6398010253906 6.57435839457321e-06 373.4522094726563 C 6.57435839457321e-06 268.2646484375 6.57435839457321e-06 79.75486755371094 6.57435839457321e-06 79.75486755371094 L 6.57435839457321e-06 10.80822372436523 C 9.495221138000488 6.886152267456055 19.40479278564453 3.974437713623047 29.69200706481934 2.160580635070801 C 37.92385864257813 0.7090283632278442 46.18178558349609 1.004464320430998e-05 54.40705108642578 1.004464320430998e-05 C 140.7521057128906 1.004464320430998e-05 224.8309631347656 77.963623046875 266.9661560058594 192.7105102539063 L 266.9661560058594 492.376220703125 C 261.7355651855469 504.5249328613281 255.8150024414063 515.9806518554688 249.2614288330078 526.6222534179688 C 246.045654296875 527.9034423828125 242.5370025634766 528.6083374023438 238.8641510009766 528.6083374023438 Z" stroke="none" fill="#333232"/>
          </g>

          <g transform="translate(241.761 595.492) rotate(180)" class="fill-4h stroke-none">
            <path d="M 119.1478042602539 252.445068359375 C 119.1461868286133 252.445068359375 119.1452560424805 252.445068359375 119.1436309814453 252.445068359375 C 109.8827972412109 252.4446716308594 100.7319030761719 251.1669769287109 91.94516754150391 248.6474304199219 C 82.62896728515625 245.9760437011719 73.71836853027344 241.9096374511719 65.46086883544922 236.5611419677734 C 57.40696716308594 231.3445434570313 49.87473297119141 224.8451995849609 43.07333374023438 217.2436981201172 C 36.38753509521484 209.7713623046875 30.33970069885254 201.1590728759766 25.09783363342285 191.6459655761719 C 19.90043449401855 182.2135314941406 15.4500675201416 171.8142395019531 11.8703670501709 160.7369384765625 C 8.288066864013672 149.6515045166016 5.54846715927124 137.7965393066406 3.727633953094482 125.501335144043 C 1.888500690460205 113.0823059082031 0.9710339903831482 100.1053009033203 1.000700712203979 86.93080139160156 C 1.030933976173401 73.50876617431641 2.04520058631897 59.74386978149414 4.01536750793457 46.01840209960938 C 6.037233829498291 31.93256950378418 9.091700553894043 17.71363639831543 13.09396743774414 3.756503343582153 C 13.35323810577393 2.851656436920166 13.62266159057617 1.927469968795776 13.89751625061035 1.000003218650818 L 195.5993957519531 1.000003218650818 C 199.25830078125 1.000003218650818 202.8073272705078 1.716469883918762 206.1479339599609 3.129536628723145 C 209.3750610351563 4.494569778442383 212.2736053466797 6.448969841003418 214.7630004882813 8.938369750976563 C 217.25244140625 11.42776966094971 219.2068328857422 14.32630348205566 220.5718994140625 17.55343627929688 C 221.9849395751953 20.8940372467041 222.7014312744141 24.44306945800781 222.7014312744141 28.10200309753418 L 222.7014312744141 201.2650756835938 C 215.0344543457031 209.2453002929688 206.9512634277344 216.4667663574219 198.6723327636719 222.7319030761719 C 190.2776031494141 229.0847320556641 181.5872344970703 234.5258026123047 172.8426666259766 238.9039764404297 C 164.0131683349609 243.32470703125 155.0238952636719 246.7136688232422 146.1245727539063 248.976806640625 C 137.0750885009766 251.2781219482422 127.9983978271484 252.445068359375 119.1478042602539 252.445068359375 Z" stroke="none"/>
            <path d="M 14.64505004882813 2 C 14.44403076171875 2.68408203125 14.24678039550781 3.3636474609375 14.05525207519531 4.032135009765625 C 10.06549072265625 17.94560241699219 7.020645141601563 32.11959838867188 5.005218505859375 46.16046142578125 C 3.041717529296875 59.83978271484375 2.03082275390625 73.55763244628906 2.000717163085938 86.93302917480469 C 1.971145629882813 100.0579223632813 2.884994506835938 112.9848937988281 4.71685791015625 125.3548583984375 C 6.52960205078125 137.5956115722656 9.25653076171875 149.3963928222656 12.82192993164063 160.4294128417969 C 16.38206481933594 171.4461975097656 20.80696105957031 181.7865905761719 25.97367858886719 191.1633605957031 C 31.17918395996094 200.6104278564453 37.18307495117188 209.1607360839844 43.81857299804688 216.5768890380859 C 50.56074523925781 224.1122131347656 58.02517700195313 230.5534973144531 66.00450134277344 235.7218170166016 C 74.17910766601563 241.0166015625 82.99957275390625 245.0419921875 92.22078704833984 247.6861419677734 C 100.9193572998047 250.1803894042969 109.9775009155273 251.445068359375 119.1436386108398 251.445068359375 C 127.9127807617188 251.445068359375 136.9075622558594 250.2883453369141 145.8781127929688 248.0070343017578 C 154.7080993652344 245.7614593505859 163.6296691894531 242.397705078125 172.3950042724609 238.0092163085938 C 181.0850372314453 233.6584167480469 189.7229614257813 228.2500305175781 198.0688934326172 221.9342803955078 C 206.2058715820313 215.7766418457031 214.1537933349609 208.6894683837891 221.7014312744141 200.8619995117188 L 221.7014312744141 28.10198974609375 C 221.7014312744141 24.57763671875 221.0115356445313 21.15966796875 219.6508941650391 17.9429931640625 C 218.3362426757813 14.83506774902344 216.4538269042969 12.04335021972656 214.0558929443359 9.645462036132813 C 211.6580047607422 7.24755859375 208.8662872314453 5.36517333984375 205.7583618164063 4.050537109375 C 202.5416717529297 2.68988037109375 199.1237182617188 2 195.5993957519531 2 L 14.64505004882813 2 M 13.15174865722656 0 L 195.5993957519531 0 C 211.1185760498047 0 223.7014312744141 12.58267211914063 223.7014312744141 28.10198974609375 L 223.7014312744141 201.6670684814453 C 192.451904296875 234.3111419677734 155.3741149902344 253.4450531005859 119.1436462402344 253.4450531005859 C 109.8945007324219 253.4450531005859 100.6964492797852 252.1970825195313 91.66953277587891 249.6086730957031 C 15.06349182128906 227.6421356201172 -20.54736328125 117.4464874267578 12.13270568847656 3.480865478515625 C 12.465576171875 2.3192138671875 12.80709838867188 1.153411865234375 13.15174865722656 0 Z" stroke="none" fill="#333232"/>
          </g>

        </g>

        <text id="Easy-2" data-name="Easy" transform="translate(82.644 559.158)" class="fill-2b font-48 PenScript">
          <tspan x="-36.399" y="0">Easy</tspan>
        </text>
        <text id="Medium-2" data-name="Medium" transform="translate(141.764 259.188)" class="fill-2b font-48 PenScript">
          <tspan x="-60.836" y="0">Medium</tspan>
        </text>
        <text id="Hard-2" data-name="Hard" transform="translate(223.966 71.529)" class="fill-2b font-48 PenScript">
          <tspan x="-38.247" y="0">Hard</tspan>
        </text>
        <text id="Left_Hand-2" data-name="Left Hand" transform="translate(141.939 688.529)" class="fill-2b font-48 PenScript">
          <tspan x="-75.289" y="0">Left Hand</tspan>
        </text>
      </g>
 
    </g>
  </g>
</svg>
