<?xml version="1.0" encoding="UTF-8" standalone="no"?>
<svg
   width="800"
   height="400"
   viewBox="0 0 800 400"
   version="1.1"
   id="svg400"
   sodipodi:docname="JakobsLaw.svg"
   inkscape:version="1.2.2 (732a01da63, 2022-12-09)"
   xmlns:inkscape="http://www.inkscape.org/namespaces/inkscape"
   xmlns:sodipodi="http://sodipodi.sourceforge.net/DTD/sodipodi-0.dtd"
   xmlns="http://www.w3.org/2000/svg"
   xmlns:svg="http://www.w3.org/2000/svg">
  <sodipodi:namedview
     id="namedview402"
     pagecolor="#ffffff"
     bordercolor="#000000"
     borderopacity="0.25"
     inkscape:showpageshadow="2"
     inkscape:pageopacity="0.0"
     inkscape:pagecheckerboard="0"
     inkscape:deskcolor="#d1d1d1"
     showgrid="false"
     inkscape:zoom="0.63020833"
     inkscape:cx="922.71074"
     inkscape:cy="539.50413"
     inkscape:window-width="2560"
     inkscape:window-height="1369"
     inkscape:window-x="1072"
     inkscape:window-y="481"
     inkscape:window-maximized="1"
     inkscape:current-layer="a" />
  <defs
     id="defs321">
    <style
       id="style316">.a{clip-path:url(#b);}.b{fill:#fff;}.c{fill:#fafafa;stroke-width:4px;}.c,.e,.h{stroke:#1a1a1a;}.d,.f,.g{fill:#1a1a1a;}.d{font-size:18px;font-family:Muli-Black, Muli;font-weight:800;}.e,.h,.j{fill:none;}.e,.h{stroke-width:8px;}.f{stroke:rgba(0,0,0,0);stroke-miterlimit:10;}.h{stroke-linejoin:round;}.i{stroke:none;}</style>
    <clipPath
       id="b">
      <rect
         width="1920"
         height="1080"
         id="rect318"
         x="0"
         y="0" />
    </clipPath>
  </defs>
  <g
     id="a"
     class="a"
     clip-path="url(#b)"
     transform="matrix(0.62460973,0,0,0.62460973,-192,-167.58678)">
    <rect
       class="b"
       width="1274.731"
       height="637.96533"
       id="rect325"
       x="312.47281"
       y="266.74509"
       style="display:none;stroke-width:0.626246" />
    <g
       transform="translate(382.229,398.352)"
       id="g343">
      <g
         transform="rotate(180,219.124,41.906)"
         id="g329">
        <rect
           class="c"
           width="83.811996"
           height="438.24799"
           rx="39"
           transform="rotate(90,219.124,219.124)"
           id="rect327"
           x="0"
           y="0" />
      </g>
      <text
         class="d"
         transform="translate(75.868,47.753)"
         id="text333"><tspan
           x="-25.605"
           y="0"
           id="tspan331">BACK</tspan></text>
      <text
         class="d"
         transform="translate(207.615,47.753)"
         id="text337"><tspan
           x="-27.405001"
           y="0"
           id="tspan335">HOME</tspan></text>
      <text
         class="d"
         transform="translate(343.391,47.753)"
         id="text341"><tspan
           x="-26.766001"
           y="0"
           id="tspan339">MENU</tspan></text>
    </g>
    <g
       transform="translate(1093.592,400.463)"
       id="g349">
      <g
         transform="rotate(180,219.124,41.906)"
         id="g347">
        <rect
           class="c"
           width="83.811996"
           height="438.24799"
           rx="39"
           transform="rotate(90,219.124,219.124)"
           id="rect345"
           x="0"
           y="0" />
      </g>
    </g>
    <g
       class="e"
       transform="translate(1290,419)"
       id="g355">
      <circle
         class="i"
         cx="23.5"
         cy="23.5"
         r="23.5"
         id="circle351" />
      <circle
         class="j"
         cx="23.5"
         cy="23.5"
         r="19.5"
         id="circle353" />
    </g>
    <g
       transform="translate(1093.592,690.629)"
       id="g361">
      <g
         transform="rotate(180,219.124,41.906)"
         id="g359">
        <rect
           class="c"
           width="83.811996"
           height="438.24799"
           rx="39"
           transform="rotate(90,219.124,219.124)"
           id="rect357"
           x="0"
           y="0" />
      </g>
    </g>
    <g
       transform="translate(1284.415,708.308)"
       id="g365">
      <path
         class="f"
         d="M 0.178,52.3 V 24.646 H 56.333 V 52.3 Z M 0,24.646 28.183,0 56.333,24.646 Z"
         id="path363" />
    </g>
    <rect
       class="g"
       width="56.153999"
       height="51.964001"
       transform="translate(1149.656,708.649)"
       id="rect367"
       x="0"
       y="0" />
    <g
       transform="rotate(-90,1088.645,-326.018)"
       id="g371">
      <path
         class="f"
         d="M 18.617,52.3 V 24.646 H 37.894 V 52.3 Z M 0,24.646 28.183,0 56.333,24.646 Z"
         id="path369" />
    </g>
    <g
       transform="translate(382.229,690.766)"
       id="g377">
      <g
         transform="rotate(180,219.124,41.906)"
         id="g375">
        <rect
           class="c"
           width="83.811996"
           height="438.24799"
           rx="39"
           transform="rotate(90,219.124,219.124)"
           id="rect373"
           x="0"
           y="0" />
      </g>
    </g>
    <path
       class="g"
       d="M 55.951,0 27.959,48.454 0,0 Z"
       transform="rotate(90,-110.9615,593.7355)"
       id="path379" />
    <g
       transform="translate(706.492,704.198)"
       id="g387">
      <rect
         class="g"
         width="49"
         height="11"
         transform="translate(0.508,45.802)"
         id="rect381"
         x="0"
         y="0" />
      <path
         class="g"
         d="M 0,0 H 48.611 V 10.9 H 0 Z"
         transform="translate(0,23.027)"
         id="path383" />
      <rect
         class="g"
         width="49"
         height="11"
         transform="translate(0.508,-0.198)"
         id="rect385"
         x="0"
         y="0" />
    </g>
    <ellipse
       class="g"
       cx="24"
       cy="23.5"
       rx="24"
       ry="23.5"
       transform="translate(572,710)"
       id="ellipse389" />
    <g
       class="e"
       transform="translate(1421,419)"
       id="g395">
      <rect
         class="i"
         width="47"
         height="47"
         id="rect391"
         x="0"
         y="0" />
      <rect
         class="j"
         x="4"
         y="4"
         width="39"
         height="39"
         id="rect393" />
    </g>
    <path
       class="h"
       d="m 5087.725,-1117.576 -38.876,-22.7 38.876,-24.251"
       transform="translate(-3891.078,1583.745)"
       id="path397" />
  </g>
</svg>
