<svg xmlns="http://www.w3.org/2000/svg" viewBox="0 150 1920 800" style="width:100%; height: auto; padding-top: 0">

  <title>Law of Similarity</title>
  <desc>The human eye tends to perceive similar elements in a design as a complete picture, shape, or group, even if those elements are separated.</desc>

  <style type="text/css">
    .RedactedScript {font-family:RedactedScript-Bold, Redacted Script;font-weight:700}
    .PenScript {font-family:'Nanum Pen Script', cursive;font-weight:600}
    .Muli-Bold {font-family:Muli-Bold, Muli;font-weight:700}
    .Muli {font-family:Muli-Regular, Muli;}

    .font-48{font-size:48px;}
    .font-43{font-size:43px;}
    .font-40{font-size:40px;}
    .font-24{font-size:24px;}
    .font-20{font-size:20px;}
    .font-18{font-size:18px;}
    .font-16{font-size:16px;}
    .font-14{font-size:14px;}

    .fill-none{fill:none;}
    .fill-white{fill:#fff;}
    .fill-9h{fill:hsl(180, 3%, 93%)}
    .fill-8h{fill:hsl(210, 7%, 94%)}
    .fill-7h{fill:hsl(210, 5%, 92%)}
    .fill-6h{fill:hsl(210, 3%, 85%)}
    .fill-5h{fill:hsl(210, 2%, 84%)}
		.fill-4h{fill:hsl(220, 3%, 79%);}
		.fill-2h{fill:hsl(200, 2%, 74%);}
		.fill-h{fill:hsl(195, 2%, 68%);}
		.fill-f{fill:hsl(195, 2%, 68%);}
		.fill-hb{fill:hsl(195, 3%, 53%);}
		.fill-b{fill:hsl(192, 3%, 63%);}
		.fill-2b{fill:hsl(192, 3%, 46%);}
		.fill-4b{fill:hsl(189, 7%, 34%);}
		.fill-5b{fill:hsl(190, 6%, 40%);}
		.fill-6b{fill:hsl(185, 7%, 29%);}
		.fill-7b{fill:hsl(195, 3%, 23%);}
		.fill-8b{fill:hsl(180, 5%, 9%);}
		.fill-9b{fill:hsl(180, 50%, 2%);}

    .stroke-white{stroke:#fff;}
    .stroke-9h{stroke:hsl(180, 3%, 93%)}
    .stroke-8h{stroke:hsl(210, 7%, 94%)}
    .stroke-7h{stroke:hsl(210, 5%, 92%)}
    .stroke-6h{stroke:hsl(210, 3%, 85%)}
    .stroke-5h{stroke:hsl(210, 2%, 84%)}
		.stroke-4h{stroke:hsl(220, 3%, 79%);}
		.stroke-2h{stroke:hsl(200, 2%, 74%);}
		.stroke-h{stroke:hsl(195, 2%, 68%);}
		.stroke-f{stroke:hsl(195, 2%, 68%);}
		.stroke-hb{stroke:hsl(195, 3%, 53%);}
		.stroke-b{stroke:hsl(192, 3%, 63%);}
		.stroke-2b{stroke:hsl(192, 3%, 46%);}
		.stroke-4b{stroke:hsl(189, 7%, 34%);}
		.stroke-5b{stroke:hsl(190, 6%, 40%);}
		.stroke-6b{stroke:hsl(185, 7%, 29%);}
		.stroke-7b{stroke:hsl(195, 3%, 23%);}
		.stroke-8b{stroke:hsl(180, 5%, 9%);}
		.stroke-9b{stroke:hsl(180, 50%, 2%);}
    
    .stroke-32{stroke-width:32px;}
    .stroke-24{stroke-width:24px;}
    .stroke-18{stroke-width:18px;}
    .stroke-14{stroke-width:14px;}
    .stroke-8{stroke-width:8px;}
    .stroke-4{stroke-width:4px;}
    .stroke-2{stroke-width:2px;}
    .stroke-none{stroke-width:none;}
  </style>


  <g id="LawOfSimilarity" clip-path="url(#clip-LawOfSimilarity)">

    <g id="Law_of_Similarity" data-name="Law of Similarity">

      <g>
        <g>
          <text transform="translate(299 412)" class="fill-4b font-24 RedactedScript">
            <tspan x="-65.652" y="0">culpa officia</tspan>
          </text>
          <text transform="translate(362 440)" class="fill-4b font-24 RedactedScript">
            <tspan x="-128.736" y="0">culspa officia aut! sad</tspan>
          </text>

          <g>
            <path d="M9,34.223a9,9,0,0,1-9-9V9A9,9,0,0,1,9,0H117.928a9,9,0,0,1,9,9V25.223a9,9,0,0,1-9,9Z" transform="translate(233.279 462.503)" class="fill-4b"/>
            <text transform="translate(295 484)" class="fill-9h font-14 RedactedScript">
              <tspan x="-22.484" y="0">culbzwp</tspan>
            </text>
          </g>

          <g>
            <path d="M9,34.223a9,9,0,0,1-9-9V9A9,9,0,0,1,9,0H117.928a9,9,0,0,1,9,9V25.223a9,9,0,0,1-9,9Z" transform="translate(375.637 462.503)" class="fill-4b"/>
            <text transform="translate(437 484)" class="fill-9h font-14 RedactedScript">
              <tspan x="-31.661" y="0">culnvbbzwp</tspan>
            </text>
          </g>
        </g>

        <g>
          <text transform="translate(627 412)" class="fill-4b font-24 RedactedScript">
            <tspan x="-65.652" y="0">culpa officia</tspan>
          </text>
          <text transform="translate(690 440)" class="fill-4b font-24 RedactedScript">
            <tspan x="-128.736" y="0">culspa officia aut! sad</tspan>
          </text>

          <g>
            <path d="M9,34.223a9,9,0,0,1-9-9V9A9,9,0,0,1,9,0H117.928a9,9,0,0,1,9,9V25.223a9,9,0,0,1-9,9Z" transform="translate(561.322 462.503)" class="fill-4b"/>
            <text transform="translate(623 484)" class="fill-9h font-14 RedactedScript">
              <tspan x="-22.484" y="0">culbzwp</tspan>
            </text>
          </g>

          <g>
            <path d="M9,34.223a9,9,0,0,1-9-9V9A9,9,0,0,1,9,0H117.928a9,9,0,0,1,9,9V25.223a9,9,0,0,1-9,9Z" transform="translate(703.68 462.503)" class="fill-4b"/>
            <text transform="translate(765 484)" class="fill-9h font-14 RedactedScript">
              <tspan x="-31.661" y="0">culnvbbzwp</tspan>
            </text>
          </g>
        </g>
        
        <g>
          <text transform="translate(299 547)" class="fill-4b font-24 RedactedScript">
            <tspan x="-65.652" y="0">culpa officia</tspan>
          </text>
          <text transform="translate(362 576)" class="fill-4b font-24 RedactedScript">
            <tspan x="-128.736" y="0">culspa officia aut! sad</tspan>
          </text>

          <g>
            <path d="M9,34.223a9,9,0,0,1-9-9V9A9,9,0,0,1,9,0H117.928a9,9,0,0,1,9,9V25.223a9,9,0,0,1-9,9Z" transform="translate(233.279 598.672)" class="fill-4b"/>      
            <text transform="translate(295 620)" class="fill-9h font-14 RedactedScript">
              <tspan x="-22.484" y="0">culbzwp</tspan>
            </text>
          </g>

          <g>
            <path d="M9,34.223a9,9,0,0,1-9-9V9A9,9,0,0,1,9,0H117.928a9,9,0,0,1,9,9V25.223a9,9,0,0,1-9,9Z" transform="translate(375.637 598.672)" class="fill-4b"/>
            <text transform="translate(437 620)" class="fill-9h font-14 RedactedScript">
              <tspan x="-31.661" y="0">culnvbbzwp</tspan>
            </text>
          </g>

        </g>
            
        <g>
          <text transform="translate(627 547)" class="fill-4b font-24 RedactedScript">
            <tspan x="-65.652" y="0">culpa officia</tspan>
          </text>
          <text transform="translate(690 576)" class="fill-4b font-24 RedactedScript">
            <tspan x="-128.736" y="0">culspa officia aut! sad</tspan>
          </text>

          <g>
            <path d="M9,34.223a9,9,0,0,1-9-9V9A9,9,0,0,1,9,0H117.928a9,9,0,0,1,9,9V25.223a9,9,0,0,1-9,9Z" transform="translate(561.322 598.672)" class="fill-4b"/>
            <text transform="translate(623 620)" class="fill-9h font-14 RedactedScript">
              <tspan x="-22.484" y="0">culbzwp</tspan>
            </text>
          </g>

          <g>
            <path d="M9,34.223a9,9,0,0,1-9-9V9A9,9,0,0,1,9,0H117.928a9,9,0,0,1,9,9V25.223a9,9,0,0,1-9,9Z" transform="translate(703.68 598.672)" class="fill-4b"/>
            <text transform="translate(765 620)" class="fill-9h font-14 RedactedScript">
              <tspan x="-31.661" y="0">culnvbbzwp</tspan>
            </text>
          </g>
        </g>

      </g>

      <g>

        <g>
            <text transform="translate(1070 412)" class="fill-4b RedactedScript font-24">
            <tspan x="-65.652" y="0">culpa officia</tspan></text>
            <text transform="translate(1100 440)" class="fill-hb RedactedScript font-18">
            <tspan x="-96.552" y="0">culspa officia aut! sad</tspan></text>

            <g>
              <path d="M9,34.223a9,9,0,0,1-9-9V9A9,9,0,0,1,9,0H117.928a9,9,0,0,1,9,9V25.223a9,9,0,0,1-9,9Z" transform="translate(1003.279 462.503)" class="fill-4b"/>
              <text transform="translate(1065 484)" class="fill-9h RedactedScript font-14">
                <tspan x="-22.484" y="0">culbzwp</tspan>
              </text>
            </g>

            <g>
                <path d="M9,32.224a9,9,0,0,1-9-9V9A9,9,0,0,1,9,0H115.928a9,9,0,0,1,9,9V23.224a9,9,0,0,1-9,9Z" transform="translate(1146.536 463.503)" class="fill-8h stroke-4b stroke-2"/>
                <text transform="translate(1210 484)" class="fill-2b RedactedScript font-14" >
                  <tspan x="-31.661" y="0">culnvbbzwp</tspan>
                </text>
            </g>

          </g>

          <g>
              <text transform="translate(1069 548)" class="fill-4b RedactedScript font-24">
                <tspan x="-65.652" y="0">culpa officia</tspan>
              </text>
              <text transform="translate(1100 576)" class="fill-hb RedactedScript font-18">
                <tspan x="-96.552" y="0">culspa officia aut! sad</tspan>
              </text>

              <g>
                <path d="M9,34.223a9,9,0,0,1-9-9V9A9,9,0,0,1,9,0H117.928a9,9,0,0,1,9,9V25.223a9,9,0,0,1-9,9Z" transform="translate(1003.279 598.503)" class="fill-4b"/>
                <text transform="translate(1065 620)" class="fill-9h RedactedScript font-14">
                  <tspan x="-22.484" y="0">culbzwp</tspan>
                </text>
              </g>

              <g>
                <path d="M9,32.224a9,9,0,0,1-9-9V9A9,9,0,0,1,9,0H115.928a9,9,0,0,1,9,9V23.224a9,9,0,0,1-9,9Z" transform="translate(1146.536 599.503)" class="fill-8h stroke-4b stroke-2"/>
                <text transform="translate(1210 620)" class="fill-2b RedactedScript font-14" >
                  <tspan x="-31.661" y="0">culnvbbzwp</tspan>
                </text>
              </g>
          </g>

          <g>
              <text transform="translate(1399 412)" class="fill-4b RedactedScript font-24">
                <tspan x="-65.652" y="0">culpa officia</tspan>
              </text>
              <text transform="translate(1430 440)" class="fill-hb RedactedScript font-18">
                <tspan x="-96.552" y="0">culspa officia aut! sad</tspan>
              </text>

              <g>
                  <path d="M9,34.223a9,9,0,0,1-9-9V9A9,9,0,0,1,9,0H117.928a9,9,0,0,1,9,9V25.223a9,9,0,0,1-9,9Z" transform="translate(1333.279 462.503)" class="fill-4b"/>
                  <text transform="translate(1395 484)" class="fill-9h RedactedScript font-14" >
                    <tspan x="-22.484" y="0">culbzwp</tspan>
                  </text>
              </g>

              <g>
                  <path d="M9,32.224a9,9,0,0,1-9-9V9A9,9,0,0,1,9,0H115.928a9,9,0,0,1,9,9V23.224a9,9,0,0,1-9,9Z" transform="translate(1476.536 463.503)" class="fill-8h stroke-4b stroke-2"/>
                  <text transform="translate(1540 484)" class="fill-2b RedactedScript font-14" >
                    <tspan x="-31.661" y="0">culnvbbzwp</tspan>
                  </text>
              </g>
          </g>


          <g>
              <text transform="translate(1399 548)" class="fill-4b RedactedScript font-24">
                <tspan x="-65.652" y="0">culpa officia</tspan>
              </text>
              <text transform="translate(1430 576)" class="fill-hb RedactedScript font-18">
              <tspan x="-96.552" y="0">culspa officia aut! sad</tspan></text>

              <g>
                  <path d="M9,34.223a9,9,0,0,1-9-9V9A9,9,0,0,1,9,0H117.928a9,9,0,0,1,9,9V25.223a9,9,0,0,1-9,9Z" transform="translate(1333.279 598.503)" class="fill-4b"/>
                  <text transform="translate(1395 620)" class="fill-9h RedactedScript font-14" >
                  <tspan x="-22.484" y="0">culbzwp</tspan></text>
              </g>

              <g>
                  <path d="M9,32.224a9,9,0,0,1-9-9V9A9,9,0,0,1,9,0H115.928a9,9,0,0,1,9,9V23.224a9,9,0,0,1-9,9Z" transform="translate(1476.536 599.503)" class="fill-8h stroke-4b stroke-2"/>
                  <text transform="translate(1540 620)" class="fill-2b RedactedScript font-14" >
                  <tspan x="-31.661" y="0">culnvbbzwp</tspan></text>
              </g>
          </g>

      </g>

    </g>
  </g>
</svg>
